%TF.GenerationSoftware,KiCad,Pcbnew,9.0.0*%
%TF.CreationDate,2026-04-05T16:20:28+02:00*%
%TF.ProjectId,ble beacon,626c6520-6265-4616-936f-6e2e6b696361,rev?*%
%TF.SameCoordinates,Original*%
%TF.FileFunction,Paste,Top*%
%TF.FilePolarity,Positive*%
%FSLAX46Y46*%
G04 Gerber Fmt 4.6, Leading zero omitted, Abs format (unit mm)*
G04 Created by KiCad (PCBNEW 9.0.0) date 2026-04-05 16:20:28*
%MOMM*%
%LPD*%
G01*
G04 APERTURE LIST*
G04 Aperture macros list*
%AMRoundRect*
0 Rectangle with rounded corners*
0 $1 Rounding radius*
0 $2 $3 $4 $5 $6 $7 $8 $9 X,Y pos of 4 corners*
0 Add a 4 corners polygon primitive as box body*
4,1,4,$2,$3,$4,$5,$6,$7,$8,$9,$2,$3,0*
0 Add four circle primitives for the rounded corners*
1,1,$1+$1,$2,$3*
1,1,$1+$1,$4,$5*
1,1,$1+$1,$6,$7*
1,1,$1+$1,$8,$9*
0 Add four rect primitives between the rounded corners*
20,1,$1+$1,$2,$3,$4,$5,0*
20,1,$1+$1,$4,$5,$6,$7,0*
20,1,$1+$1,$6,$7,$8,$9,0*
20,1,$1+$1,$8,$9,$2,$3,0*%
G04 Aperture macros list end*
%ADD10RoundRect,0.250000X-0.262500X-0.450000X0.262500X-0.450000X0.262500X0.450000X-0.262500X0.450000X0*%
%ADD11RoundRect,0.218750X-0.218750X-0.256250X0.218750X-0.256250X0.218750X0.256250X-0.218750X0.256250X0*%
%ADD12RoundRect,0.250000X-0.250000X-0.475000X0.250000X-0.475000X0.250000X0.475000X-0.250000X0.475000X0*%
%ADD13R,0.800000X1.400000*%
%ADD14R,0.400000X1.400000*%
%ADD15R,1.400000X0.400000*%
%ADD16R,0.400000X1.000000*%
%ADD17RoundRect,0.250000X-0.465000X-2.500000X0.465000X-2.500000X0.465000X2.500000X-0.465000X2.500000X0*%
G04 APERTURE END LIST*
D10*
%TO.C,R1*%
X178287500Y-72900000D03*
X180112500Y-72900000D03*
%TD*%
D11*
%TO.C,D1*%
X178452500Y-75170000D03*
X180027500Y-75170000D03*
%TD*%
D12*
%TO.C,C2*%
X171950000Y-93710000D03*
X173850000Y-93710000D03*
%TD*%
%TO.C,C3*%
X171950000Y-91600000D03*
X173850000Y-91600000D03*
%TD*%
D10*
%TO.C,R2*%
X173400000Y-72900000D03*
X175225000Y-72900000D03*
%TD*%
D13*
%TO.C,U1*%
X170400000Y-87800000D03*
D14*
X173400000Y-87800000D03*
X174100000Y-87800000D03*
X174800000Y-87800000D03*
X175500000Y-87800000D03*
X176200000Y-87800000D03*
X176900000Y-87800000D03*
X177600000Y-87800000D03*
X178300000Y-87800000D03*
X179000000Y-87800000D03*
X179700000Y-87800000D03*
D15*
X181800000Y-87400000D03*
X181800000Y-86700000D03*
X181800000Y-86000000D03*
X181800000Y-85300000D03*
X181800000Y-84600000D03*
X181800000Y-83900000D03*
X181800000Y-83200000D03*
X181800000Y-82500000D03*
X181800000Y-81800000D03*
X181800000Y-81100000D03*
X181800000Y-80400000D03*
X181800000Y-79700000D03*
X181800000Y-79000000D03*
D14*
X180400000Y-78600000D03*
X179700000Y-78600000D03*
X179000000Y-78600000D03*
X178300000Y-78600000D03*
X177600000Y-78600000D03*
X176900000Y-78600000D03*
X176200000Y-78600000D03*
X175500000Y-78600000D03*
X174800000Y-78600000D03*
X174100000Y-78600000D03*
X173400000Y-78600000D03*
X172700000Y-78600000D03*
X172000000Y-78600000D03*
X171300000Y-78600000D03*
D13*
X170400000Y-78600000D03*
D16*
X170950000Y-80300000D03*
X172350000Y-80300000D03*
%TD*%
D11*
%TO.C,D2*%
X173612500Y-75200000D03*
X175187500Y-75200000D03*
%TD*%
D17*
%TO.C,L2*%
X176800000Y-93200000D03*
X180840000Y-93200000D03*
%TD*%
M02*
