%TF.GenerationSoftware,KiCad,Pcbnew,9.0.0*%
%TF.CreationDate,2026-04-05T16:20:28+02:00*%
%TF.ProjectId,ble beacon,626c6520-6265-4616-936f-6e2e6b696361,rev?*%
%TF.SameCoordinates,Original*%
%TF.FileFunction,Copper,L2,Bot*%
%TF.FilePolarity,Positive*%
%FSLAX46Y46*%
G04 Gerber Fmt 4.6, Leading zero omitted, Abs format (unit mm)*
G04 Created by KiCad (PCBNEW 9.0.0) date 2026-04-05 16:20:28*
%MOMM*%
%LPD*%
G01*
G04 APERTURE LIST*
G04 Aperture macros list*
%AMRoundRect*
0 Rectangle with rounded corners*
0 $1 Rounding radius*
0 $2 $3 $4 $5 $6 $7 $8 $9 X,Y pos of 4 corners*
0 Add a 4 corners polygon primitive as box body*
4,1,4,$2,$3,$4,$5,$6,$7,$8,$9,$2,$3,0*
0 Add four circle primitives for the rounded corners*
1,1,$1+$1,$2,$3*
1,1,$1+$1,$4,$5*
1,1,$1+$1,$6,$7*
1,1,$1+$1,$8,$9*
0 Add four rect primitives between the rounded corners*
20,1,$1+$1,$2,$3,$4,$5,0*
20,1,$1+$1,$4,$5,$6,$7,0*
20,1,$1+$1,$6,$7,$8,$9,0*
20,1,$1+$1,$8,$9,$2,$3,0*%
G04 Aperture macros list end*
%TA.AperFunction,ComponentPad*%
%ADD10R,1.700000X1.700000*%
%TD*%
%TA.AperFunction,ComponentPad*%
%ADD11O,1.700000X1.700000*%
%TD*%
%TA.AperFunction,SMDPad,CuDef*%
%ADD12RoundRect,0.150000X0.150000X0.625000X-0.150000X0.625000X-0.150000X-0.625000X0.150000X-0.625000X0*%
%TD*%
%TA.AperFunction,SMDPad,CuDef*%
%ADD13RoundRect,0.250000X0.350000X0.650000X-0.350000X0.650000X-0.350000X-0.650000X0.350000X-0.650000X0*%
%TD*%
%TA.AperFunction,SMDPad,CuDef*%
%ADD14RoundRect,0.250000X-0.250000X-0.475000X0.250000X-0.475000X0.250000X0.475000X-0.250000X0.475000X0*%
%TD*%
%TA.AperFunction,SMDPad,CuDef*%
%ADD15R,3.600000X2.600000*%
%TD*%
%TA.AperFunction,ViaPad*%
%ADD16C,0.600000*%
%TD*%
%TA.AperFunction,Conductor*%
%ADD17C,0.500000*%
%TD*%
%TA.AperFunction,Conductor*%
%ADD18C,0.200000*%
%TD*%
G04 APERTURE END LIST*
D10*
%TO.P,J7,1,Pin_1*%
%TO.N,Net-(J7-Pin_1)*%
X220100000Y-87600000D03*
D11*
%TO.P,J7,2,Pin_2*%
%TO.N,Net-(J7-Pin_2)*%
X220100000Y-90140000D03*
%TD*%
D10*
%TO.P,J1,1,Pin_1*%
%TO.N,Net-(J1-Pin_1)*%
X179840000Y-107200000D03*
D11*
%TO.P,J1,2,Pin_2*%
%TO.N,Net-(J1-Pin_2)*%
X177300000Y-107200000D03*
%TO.P,J1,3,Pin_3*%
X174760000Y-107200000D03*
%TD*%
D10*
%TO.P,J5,1,Pin_1*%
%TO.N,GND*%
X187100000Y-85000000D03*
D11*
%TO.P,J5,2,Pin_2*%
%TO.N,+3.3V*%
X187100000Y-87540000D03*
%TO.P,J5,3,Pin_3*%
%TO.N,sda*%
X187100000Y-90080000D03*
%TO.P,J5,4,Pin_4*%
%TO.N,scl*%
X187100000Y-92620000D03*
%TD*%
D10*
%TO.P,J6,1,Pin_1*%
%TO.N,GND*%
X224200000Y-84820000D03*
D11*
%TO.P,J6,2,Pin_2*%
%TO.N,+3.3V*%
X224200000Y-87360000D03*
%TO.P,J6,3,Pin_3*%
%TO.N,sda*%
X224200000Y-89900000D03*
%TO.P,J6,4,Pin_4*%
%TO.N,scl*%
X224200000Y-92440000D03*
%TD*%
D10*
%TO.P,J4,1,Pin_1*%
%TO.N,Net-(J4-Pin_1)*%
X193600000Y-72200000D03*
D11*
%TO.P,J4,2,Pin_2*%
%TO.N,Net-(J4-Pin_2)*%
X191060000Y-72200000D03*
%TO.P,J4,3,Pin_3*%
%TO.N,Net-(J4-Pin_3)*%
X188520000Y-72200000D03*
%TO.P,J4,4,Pin_4*%
%TO.N,GND*%
X185980000Y-72200000D03*
%TD*%
D12*
%TO.P,J8,1,Pin_1*%
%TO.N,GND*%
X213000000Y-103800000D03*
%TO.P,J8,2,Pin_2*%
%TO.N,+3.3V*%
X212000000Y-103800000D03*
%TO.P,J8,3,Pin_3*%
%TO.N,sda*%
X211000000Y-103800000D03*
%TO.P,J8,4,Pin_4*%
%TO.N,scl*%
X210000000Y-103800000D03*
D13*
%TO.P,J8,MP*%
%TO.N,GND*%
X214300000Y-107675000D03*
X208700000Y-107675000D03*
%TD*%
D12*
%TO.P,J3,1,Pin_1*%
%TO.N,GND*%
X202100000Y-103700000D03*
%TO.P,J3,2,Pin_2*%
%TO.N,+3.3V*%
X201100000Y-103700000D03*
%TO.P,J3,3,Pin_3*%
%TO.N,sda*%
X200100000Y-103700000D03*
%TO.P,J3,4,Pin_4*%
%TO.N,scl*%
X199100000Y-103700000D03*
D13*
%TO.P,J3,MP*%
%TO.N,GND*%
X203400000Y-107575000D03*
X197800000Y-107575000D03*
%TD*%
D14*
%TO.P,C1,1*%
%TO.N,Net-(J1-Pin_2)*%
X177700000Y-85300000D03*
%TO.P,C1,2*%
%TO.N,GND*%
X179600000Y-85300000D03*
%TD*%
D15*
%TO.P,J2,1,Pin_1*%
%TO.N,Net-(J1-Pin_1)*%
X237800000Y-104400000D03*
%TO.P,J2,2,Pin_2*%
%TO.N,GND*%
X237800000Y-75100000D03*
%TD*%
D16*
%TO.N,GND*%
X208200000Y-89100000D03*
X187300000Y-96800000D03*
X185000000Y-80700000D03*
X169800000Y-94400000D03*
X202700000Y-100800000D03*
X186700000Y-97700000D03*
X171200000Y-84800000D03*
X180200000Y-72900000D03*
X171000000Y-86000000D03*
X188900000Y-97700000D03*
X212400000Y-86400000D03*
X173700000Y-80500000D03*
X208400000Y-108300000D03*
X184100000Y-100000000D03*
X196700000Y-97000000D03*
X203200000Y-86300000D03*
X171900000Y-93800000D03*
X205100000Y-101000000D03*
X187800000Y-99400000D03*
X207600000Y-101800000D03*
X209000000Y-108300000D03*
X175800000Y-80500000D03*
X237700000Y-74400000D03*
X171700000Y-106500000D03*
X189900000Y-90400000D03*
X214600000Y-107100000D03*
X214600000Y-108300000D03*
X198100000Y-108200000D03*
X237800000Y-76200000D03*
X213300000Y-89400000D03*
X214000000Y-107100000D03*
X185000000Y-79600000D03*
X172000000Y-95600000D03*
X177600000Y-82300000D03*
X182500000Y-78100000D03*
X237700000Y-75400000D03*
X203100000Y-107600000D03*
X175200000Y-97300000D03*
X181400000Y-97400000D03*
X203700000Y-107600000D03*
X214000000Y-107700000D03*
X222200000Y-90200000D03*
X197500000Y-108200000D03*
X239000000Y-74300000D03*
X208400000Y-107700000D03*
X182700000Y-92300000D03*
X182800000Y-93800000D03*
X216200000Y-95200000D03*
X215200000Y-100200000D03*
X222300000Y-88700000D03*
X214600000Y-107700000D03*
X175300000Y-72900000D03*
X236600000Y-74300000D03*
X208400000Y-107100000D03*
X199900000Y-89300000D03*
X178600000Y-97400000D03*
X189300000Y-96800000D03*
X212900000Y-98100000D03*
X198700000Y-99600000D03*
X182700000Y-95600000D03*
X172400000Y-102400000D03*
X198100000Y-107000000D03*
X219000000Y-92700000D03*
X186100000Y-95500000D03*
X171200000Y-73000000D03*
X168000000Y-90400000D03*
X186700000Y-96300000D03*
X173700000Y-82600000D03*
X193200000Y-89300000D03*
X209000000Y-107700000D03*
X187800000Y-96000000D03*
X179400000Y-82500000D03*
X189000000Y-96000000D03*
X217000000Y-86300000D03*
X188400000Y-98600000D03*
X186900000Y-103200000D03*
X168100000Y-76100000D03*
X238000000Y-107200000D03*
X198100000Y-107600000D03*
X210500000Y-100400000D03*
X217400000Y-89600000D03*
X175900000Y-82500000D03*
X182600000Y-88800000D03*
X187300000Y-98500000D03*
X173800000Y-100900000D03*
X236700000Y-75400000D03*
X179600000Y-85300000D03*
X209000000Y-107100000D03*
X190400000Y-95500000D03*
X214000000Y-108300000D03*
X170400000Y-87800000D03*
X181500000Y-88700000D03*
X239000000Y-75400000D03*
X236800000Y-76200000D03*
X194400000Y-83100000D03*
X193300000Y-93600000D03*
X189500000Y-98600000D03*
X174100000Y-84000000D03*
X234200000Y-105700000D03*
X187300000Y-74700000D03*
X170600000Y-92600000D03*
X191000000Y-103700000D03*
X239000000Y-76300000D03*
X185400000Y-101500000D03*
X169600000Y-93500000D03*
X203700000Y-107000000D03*
X190100000Y-96300000D03*
X166500000Y-103900000D03*
X194800000Y-103700000D03*
X189900000Y-74600000D03*
X189600000Y-95500000D03*
X236800000Y-108800000D03*
X203100000Y-107000000D03*
X203700000Y-108200000D03*
X171900000Y-91500000D03*
X213000000Y-103800000D03*
X199200000Y-83200000D03*
X211500000Y-83200000D03*
X171200000Y-100500000D03*
X189900000Y-97700000D03*
X170400000Y-78700000D03*
X168400000Y-94500000D03*
X220500000Y-94900000D03*
X179500000Y-80600000D03*
X169800000Y-76000000D03*
X188300000Y-96800000D03*
X205600000Y-83300000D03*
X203100000Y-108200000D03*
X181700000Y-78100000D03*
X187000000Y-95500000D03*
X232500000Y-107600000D03*
X202100000Y-103700000D03*
X195100000Y-86300000D03*
X177600000Y-80600000D03*
X176800000Y-74200000D03*
X197500000Y-107600000D03*
X166500000Y-92000000D03*
X197500000Y-107000000D03*
X169100000Y-104000000D03*
X170800000Y-94400000D03*
X166200000Y-90400000D03*
X186300000Y-80600000D03*
X175800000Y-84000000D03*
X187900000Y-97700000D03*
X189000000Y-99400000D03*
X166600000Y-76100000D03*
X182700000Y-90500000D03*
%TO.N,Net-(J1-Pin_2)*%
X168600000Y-99900000D03*
X177700000Y-85300000D03*
%TO.N,Net-(J1-Pin_1)*%
X237800000Y-103800000D03*
X239000000Y-103700000D03*
X237800000Y-105200000D03*
X236500000Y-105100000D03*
X236500000Y-103700000D03*
X238400000Y-104500000D03*
X238900000Y-105100000D03*
X237100000Y-104500000D03*
%TO.N,sda*%
X174100000Y-86400000D03*
X200100000Y-103700000D03*
X211000000Y-103900000D03*
%TO.N,scl*%
X213400000Y-102100000D03*
X175000000Y-86400000D03*
X199100000Y-103700000D03*
X210000000Y-104100000D03*
X203200000Y-104500000D03*
%TO.N,+3.3V*%
X212000000Y-103800000D03*
X197600000Y-102400000D03*
%TO.N,Net-(J4-Pin_2)*%
X172900000Y-76700000D03*
%TO.N,Net-(J4-Pin_1)*%
X174300000Y-77100000D03*
%TO.N,Net-(J4-Pin_3)*%
X172000000Y-75800000D03*
%TO.N,Net-(J7-Pin_1)*%
X190300000Y-87600000D03*
X190300000Y-83600000D03*
%TO.N,Net-(J7-Pin_2)*%
X183500000Y-83500000D03*
X183500000Y-85300000D03*
X215600000Y-83400000D03*
X215600000Y-89400000D03*
%TD*%
D17*
%TO.N,Net-(J1-Pin_2)*%
X177300000Y-107200000D02*
X174800000Y-107200000D01*
X168600000Y-101000000D02*
X168600000Y-99900000D01*
X174800000Y-107200000D02*
X168600000Y-101000000D01*
%TO.N,Net-(J1-Pin_1)*%
X181551000Y-109051000D02*
X179800000Y-107300000D01*
X233149000Y-109051000D02*
X181551000Y-109051000D01*
X237800000Y-104400000D02*
X233149000Y-109051000D01*
D18*
%TO.N,sda*%
X174100000Y-86100000D02*
X174500000Y-85700000D01*
X174100000Y-86400000D02*
X174100000Y-86100000D01*
X187100000Y-89700000D02*
X187100000Y-90200000D01*
X183900000Y-86500000D02*
X187100000Y-89700000D01*
X174500000Y-85700000D02*
X175300000Y-85700000D01*
X175300000Y-85700000D02*
X176100000Y-86500000D01*
X176100000Y-86500000D02*
X183900000Y-86500000D01*
%TO.N,scl*%
X211283032Y-102100000D02*
X213400000Y-102100000D01*
X202900000Y-104800000D02*
X203200000Y-104500000D01*
X185500000Y-92000000D02*
X186100000Y-92600000D01*
X210000000Y-103800000D02*
X210000000Y-103383032D01*
X199100000Y-104474999D02*
X199425001Y-104800000D01*
X185500000Y-88700000D02*
X185500000Y-92000000D01*
X183700000Y-86900000D02*
X185500000Y-88700000D01*
X186100000Y-92600000D02*
X187100000Y-92600000D01*
X175500000Y-86900000D02*
X183700000Y-86900000D01*
X210000000Y-103383032D02*
X211283032Y-102100000D01*
X175000000Y-86400000D02*
X175500000Y-86900000D01*
X199425001Y-104800000D02*
X202900000Y-104800000D01*
X199100000Y-103700000D02*
X199100000Y-104474999D01*
%TO.N,+3.3V*%
X211900000Y-105600000D02*
X212000000Y-105500000D01*
X201100000Y-103700000D02*
X201100000Y-103283032D01*
X200800000Y-102400000D02*
X201100000Y-102700000D01*
X212000000Y-105500000D02*
X212000000Y-103800000D01*
X211700000Y-105800000D02*
X211900000Y-105600000D01*
X197600000Y-102400000D02*
X200800000Y-102400000D01*
X201100000Y-102700000D02*
X201100000Y-103700000D01*
X201759032Y-102624000D02*
X205724000Y-102624000D01*
X205724000Y-102624000D02*
X208900000Y-105800000D01*
X201100000Y-103283032D02*
X201759032Y-102624000D01*
X208900000Y-105800000D02*
X211700000Y-105800000D01*
%TO.N,Net-(J4-Pin_2)*%
X173101000Y-76499000D02*
X172900000Y-76700000D01*
X191060000Y-72200000D02*
X186761000Y-76499000D01*
X186761000Y-76499000D02*
X173101000Y-76499000D01*
%TO.N,Net-(J4-Pin_1)*%
X174600000Y-77400000D02*
X174300000Y-77100000D01*
X193600000Y-72200000D02*
X188400000Y-77400000D01*
X177000000Y-77400000D02*
X174600000Y-77400000D01*
X188400000Y-77400000D02*
X177000000Y-77400000D01*
%TO.N,Net-(J4-Pin_3)*%
X188520000Y-72200000D02*
X184920000Y-75800000D01*
X184920000Y-75800000D02*
X172000000Y-75800000D01*
%TO.N,Net-(J7-Pin_1)*%
X190300000Y-87600000D02*
X190300000Y-83600000D01*
%TO.N,Net-(J7-Pin_2)*%
X183500000Y-83500000D02*
X183500000Y-85300000D01*
X215600000Y-89400000D02*
X215600000Y-83400000D01*
%TD*%
%TA.AperFunction,Conductor*%
%TO.N,GND*%
G36*
X190701473Y-73503506D02*
G01*
X190743757Y-73517246D01*
X190953713Y-73550500D01*
X190953714Y-73550500D01*
X191100901Y-73550500D01*
X191167940Y-73570185D01*
X191213695Y-73622989D01*
X191223639Y-73692147D01*
X191194614Y-73755703D01*
X191188582Y-73762181D01*
X188187584Y-76763181D01*
X188126261Y-76796666D01*
X188099903Y-76799500D01*
X187609097Y-76799500D01*
X187542058Y-76779815D01*
X187496303Y-76727011D01*
X187486359Y-76657853D01*
X187515384Y-76594297D01*
X187521416Y-76587819D01*
X188283224Y-75826011D01*
X190575478Y-73533755D01*
X190636799Y-73500272D01*
X190701473Y-73503506D01*
G37*
%TD.AperFunction*%
%TA.AperFunction,Conductor*%
G36*
X188161473Y-73503506D02*
G01*
X188203757Y-73517246D01*
X188413713Y-73550500D01*
X188413714Y-73550500D01*
X188560902Y-73550500D01*
X188627941Y-73570185D01*
X188673696Y-73622989D01*
X188683640Y-73692147D01*
X188654615Y-73755703D01*
X188648583Y-73762181D01*
X186548584Y-75862181D01*
X186487261Y-75895666D01*
X186460903Y-75898500D01*
X185970097Y-75898500D01*
X185903058Y-75878815D01*
X185857303Y-75826011D01*
X185847359Y-75756853D01*
X185876384Y-75693297D01*
X185882416Y-75686819D01*
X186406054Y-75163181D01*
X188035478Y-73533755D01*
X188096799Y-73500272D01*
X188161473Y-73503506D01*
G37*
%TD.AperFunction*%
%TA.AperFunction,Conductor*%
G36*
X248004418Y-70500816D02*
G01*
X248204561Y-70515130D01*
X248222063Y-70517647D01*
X248413797Y-70559355D01*
X248430755Y-70564334D01*
X248614609Y-70632909D01*
X248630701Y-70640259D01*
X248802904Y-70734288D01*
X248817784Y-70743849D01*
X248958917Y-70849501D01*
X248974867Y-70861441D01*
X248988237Y-70873027D01*
X249126972Y-71011762D01*
X249138558Y-71025132D01*
X249256146Y-71182210D01*
X249265711Y-71197095D01*
X249359740Y-71369298D01*
X249367090Y-71385390D01*
X249435662Y-71569236D01*
X249440646Y-71586212D01*
X249482351Y-71777931D01*
X249484869Y-71795442D01*
X249499184Y-71995580D01*
X249499500Y-72004427D01*
X249499500Y-107995572D01*
X249499184Y-108004419D01*
X249484869Y-108204557D01*
X249482351Y-108222068D01*
X249440646Y-108413787D01*
X249435662Y-108430763D01*
X249367090Y-108614609D01*
X249359740Y-108630701D01*
X249265711Y-108802904D01*
X249256146Y-108817789D01*
X249138558Y-108974867D01*
X249126972Y-108988237D01*
X248988237Y-109126972D01*
X248974867Y-109138558D01*
X248817789Y-109256146D01*
X248802904Y-109265711D01*
X248630701Y-109359740D01*
X248614609Y-109367090D01*
X248430763Y-109435662D01*
X248413787Y-109440646D01*
X248222068Y-109482351D01*
X248204557Y-109484869D01*
X248023779Y-109497799D01*
X248004417Y-109499184D01*
X247995572Y-109499500D01*
X234061230Y-109499500D01*
X233994191Y-109479815D01*
X233948436Y-109427011D01*
X233938492Y-109357853D01*
X233967517Y-109294297D01*
X233973549Y-109287819D01*
X235850712Y-107410655D01*
X236399034Y-106862332D01*
X244899500Y-106862332D01*
X244899500Y-107137667D01*
X244899501Y-107137684D01*
X244935438Y-107410655D01*
X244935439Y-107410660D01*
X244935440Y-107410666D01*
X244935441Y-107410668D01*
X245006704Y-107676630D01*
X245112075Y-107931017D01*
X245112080Y-107931028D01*
X245191809Y-108069121D01*
X245249751Y-108169479D01*
X245249753Y-108169482D01*
X245249754Y-108169483D01*
X245417370Y-108387926D01*
X245417376Y-108387933D01*
X245612066Y-108582623D01*
X245612073Y-108582629D01*
X245664575Y-108622915D01*
X245830521Y-108750249D01*
X245947504Y-108817789D01*
X246068971Y-108887919D01*
X246068976Y-108887921D01*
X246068979Y-108887923D01*
X246323368Y-108993295D01*
X246589334Y-109064560D01*
X246862326Y-109100500D01*
X246862333Y-109100500D01*
X247137667Y-109100500D01*
X247137674Y-109100500D01*
X247410666Y-109064560D01*
X247676632Y-108993295D01*
X247931021Y-108887923D01*
X248169479Y-108750249D01*
X248387928Y-108582628D01*
X248582628Y-108387928D01*
X248750249Y-108169479D01*
X248887923Y-107931021D01*
X248993295Y-107676632D01*
X249064560Y-107410666D01*
X249100500Y-107137674D01*
X249100500Y-106862326D01*
X249064560Y-106589334D01*
X248993295Y-106323368D01*
X248887923Y-106068979D01*
X248887921Y-106068976D01*
X248887919Y-106068971D01*
X248814805Y-105942335D01*
X248750249Y-105830521D01*
X248674486Y-105731784D01*
X248582629Y-105612073D01*
X248582623Y-105612066D01*
X248387933Y-105417376D01*
X248387926Y-105417370D01*
X248169483Y-105249754D01*
X248169482Y-105249753D01*
X248169479Y-105249751D01*
X248071353Y-105193098D01*
X247931028Y-105112080D01*
X247931017Y-105112075D01*
X247676630Y-105006704D01*
X247511988Y-104962589D01*
X247410666Y-104935440D01*
X247410660Y-104935439D01*
X247410655Y-104935438D01*
X247137684Y-104899501D01*
X247137679Y-104899500D01*
X247137674Y-104899500D01*
X246862326Y-104899500D01*
X246862320Y-104899500D01*
X246862315Y-104899501D01*
X246589344Y-104935438D01*
X246589337Y-104935439D01*
X246589334Y-104935440D01*
X246560810Y-104943083D01*
X246323369Y-105006704D01*
X246068982Y-105112075D01*
X246068971Y-105112080D01*
X245830516Y-105249754D01*
X245612073Y-105417370D01*
X245612066Y-105417376D01*
X245417376Y-105612066D01*
X245417370Y-105612073D01*
X245249754Y-105830516D01*
X245112080Y-106068971D01*
X245112075Y-106068982D01*
X245057599Y-106200499D01*
X245024453Y-106280522D01*
X245006706Y-106323366D01*
X245006705Y-106323366D01*
X244935441Y-106589331D01*
X244935438Y-106589344D01*
X244899501Y-106862315D01*
X244899500Y-106862332D01*
X236399034Y-106862332D01*
X237024548Y-106236817D01*
X237085871Y-106203333D01*
X237112229Y-106200499D01*
X239647871Y-106200499D01*
X239647872Y-106200499D01*
X239707483Y-106194091D01*
X239842331Y-106143796D01*
X239957546Y-106057546D01*
X240043796Y-105942331D01*
X240094091Y-105807483D01*
X240100500Y-105747873D01*
X240100499Y-103052128D01*
X240094091Y-102992517D01*
X240064150Y-102912242D01*
X240043797Y-102857671D01*
X240043793Y-102857664D01*
X239957547Y-102742455D01*
X239957544Y-102742452D01*
X239842335Y-102656206D01*
X239842328Y-102656202D01*
X239707482Y-102605908D01*
X239707483Y-102605908D01*
X239647883Y-102599501D01*
X239647881Y-102599500D01*
X239647873Y-102599500D01*
X239647864Y-102599500D01*
X235952129Y-102599500D01*
X235952123Y-102599501D01*
X235892516Y-102605908D01*
X235757671Y-102656202D01*
X235757664Y-102656206D01*
X235642455Y-102742452D01*
X235642452Y-102742455D01*
X235556206Y-102857664D01*
X235556202Y-102857671D01*
X235505908Y-102992517D01*
X235502497Y-103024248D01*
X235499501Y-103052123D01*
X235499500Y-103052135D01*
X235499500Y-105587769D01*
X235479815Y-105654808D01*
X235463181Y-105675450D01*
X232874451Y-108264181D01*
X232813128Y-108297666D01*
X232786770Y-108300500D01*
X181913230Y-108300500D01*
X181846191Y-108280815D01*
X181825549Y-108264181D01*
X181226818Y-107665450D01*
X181193333Y-107604127D01*
X181190499Y-107577769D01*
X181190499Y-106302129D01*
X181190498Y-106302123D01*
X181184091Y-106242516D01*
X181133797Y-106107671D01*
X181133793Y-106107664D01*
X181047547Y-105992455D01*
X181047544Y-105992452D01*
X180932335Y-105906206D01*
X180932328Y-105906202D01*
X180797482Y-105855908D01*
X180797483Y-105855908D01*
X180737883Y-105849501D01*
X180737881Y-105849500D01*
X180737873Y-105849500D01*
X180737864Y-105849500D01*
X178942129Y-105849500D01*
X178942123Y-105849501D01*
X178882516Y-105855908D01*
X178747671Y-105906202D01*
X178747664Y-105906206D01*
X178632455Y-105992452D01*
X178632452Y-105992455D01*
X178546206Y-106107664D01*
X178546203Y-106107669D01*
X178497189Y-106239083D01*
X178455317Y-106295016D01*
X178389853Y-106319433D01*
X178321580Y-106304581D01*
X178293326Y-106283430D01*
X178179786Y-106169890D01*
X178007820Y-106044951D01*
X177818414Y-105948444D01*
X177818413Y-105948443D01*
X177818412Y-105948443D01*
X177616243Y-105882754D01*
X177616241Y-105882753D01*
X177616240Y-105882753D01*
X177454957Y-105857208D01*
X177406287Y-105849500D01*
X177193713Y-105849500D01*
X177145042Y-105857208D01*
X176983760Y-105882753D01*
X176781585Y-105948444D01*
X176592179Y-106044951D01*
X176420213Y-106169890D01*
X176269892Y-106320211D01*
X176213097Y-106398385D01*
X176208765Y-106401725D01*
X176206492Y-106406703D01*
X176181389Y-106422835D01*
X176157767Y-106441051D01*
X176151095Y-106442303D01*
X176147714Y-106444477D01*
X176112779Y-106449500D01*
X175947221Y-106449500D01*
X175880182Y-106429815D01*
X175846903Y-106398385D01*
X175790107Y-106320211D01*
X175639786Y-106169890D01*
X175467820Y-106044951D01*
X175278414Y-105948444D01*
X175278413Y-105948443D01*
X175278412Y-105948443D01*
X175076243Y-105882754D01*
X175076241Y-105882753D01*
X175076240Y-105882753D01*
X174914957Y-105857208D01*
X174866287Y-105849500D01*
X174653713Y-105849500D01*
X174653708Y-105849500D01*
X174592801Y-105859147D01*
X174523508Y-105850193D01*
X174485722Y-105824355D01*
X171064115Y-102402747D01*
X170982521Y-102321153D01*
X196799500Y-102321153D01*
X196799500Y-102478846D01*
X196830261Y-102633489D01*
X196830264Y-102633501D01*
X196890602Y-102779172D01*
X196890609Y-102779185D01*
X196978210Y-102910288D01*
X196978213Y-102910292D01*
X197089707Y-103021786D01*
X197089711Y-103021789D01*
X197220814Y-103109390D01*
X197220827Y-103109397D01*
X197366498Y-103169735D01*
X197366503Y-103169737D01*
X197521153Y-103200499D01*
X197521156Y-103200500D01*
X197521158Y-103200500D01*
X197678844Y-103200500D01*
X197678845Y-103200499D01*
X197833497Y-103169737D01*
X197979179Y-103109394D01*
X198032400Y-103073833D01*
X198106609Y-103024248D01*
X198173286Y-103003370D01*
X198240666Y-103021854D01*
X198287357Y-103073833D01*
X198299500Y-103127350D01*
X198299500Y-104390701D01*
X198302401Y-104427567D01*
X198302402Y-104427573D01*
X198348254Y-104585393D01*
X198348255Y-104585396D01*
X198431917Y-104726862D01*
X198431923Y-104726870D01*
X198548129Y-104843076D01*
X198548138Y-104843083D01*
X198689593Y-104926739D01*
X198689595Y-104926739D01*
X198689602Y-104926744D01*
X198689609Y-104926746D01*
X198690632Y-104927189D01*
X198692504Y-104928461D01*
X198696317Y-104930716D01*
X198696175Y-104930955D01*
X198696599Y-104931243D01*
X198700821Y-104932162D01*
X198729047Y-104953291D01*
X198729074Y-104953309D01*
X198731284Y-104955519D01*
X198731286Y-104955520D01*
X198738351Y-104962585D01*
X198738352Y-104962587D01*
X198738355Y-104962589D01*
X198940140Y-105164374D01*
X198940150Y-105164385D01*
X198944480Y-105168715D01*
X198944481Y-105168716D01*
X199056285Y-105280520D01*
X199119633Y-105317093D01*
X199143096Y-105330639D01*
X199143098Y-105330641D01*
X199181152Y-105352611D01*
X199193216Y-105359577D01*
X199345944Y-105400501D01*
X199345947Y-105400501D01*
X199511654Y-105400501D01*
X199511670Y-105400500D01*
X202813331Y-105400500D01*
X202813347Y-105400501D01*
X202820943Y-105400501D01*
X202979054Y-105400501D01*
X202979057Y-105400501D01*
X203131785Y-105359577D01*
X203131789Y-105359575D01*
X203141808Y-105353789D01*
X203181904Y-105330639D01*
X203193952Y-105323682D01*
X203205341Y-105317109D01*
X203205406Y-105317093D01*
X203267334Y-105300500D01*
X203278844Y-105300500D01*
X203278845Y-105300499D01*
X203433497Y-105269737D01*
X203579179Y-105209394D01*
X203710289Y-105121789D01*
X203821789Y-105010289D01*
X203909394Y-104879179D01*
X203969737Y-104733497D01*
X204000500Y-104578842D01*
X204000500Y-104421158D01*
X204000500Y-104421155D01*
X204000499Y-104421153D01*
X203969738Y-104266510D01*
X203969737Y-104266503D01*
X203911958Y-104127011D01*
X203909397Y-104120827D01*
X203909390Y-104120814D01*
X203821789Y-103989711D01*
X203821786Y-103989707D01*
X203710292Y-103878213D01*
X203710288Y-103878210D01*
X203579185Y-103790609D01*
X203579172Y-103790602D01*
X203433501Y-103730264D01*
X203433489Y-103730261D01*
X203278845Y-103699500D01*
X203278842Y-103699500D01*
X203121158Y-103699500D01*
X203121155Y-103699500D01*
X202966510Y-103730261D01*
X202966498Y-103730264D01*
X202820827Y-103790602D01*
X202820814Y-103790609D01*
X202689711Y-103878210D01*
X202689707Y-103878213D01*
X202578213Y-103989707D01*
X202578210Y-103989711D01*
X202490609Y-104120814D01*
X202490607Y-104120819D01*
X202489725Y-104122949D01*
X202488964Y-104123893D01*
X202487736Y-104126191D01*
X202487300Y-104125958D01*
X202445885Y-104177354D01*
X202379592Y-104199421D01*
X202375162Y-104199500D01*
X202024500Y-104199500D01*
X201957461Y-104179815D01*
X201911706Y-104127011D01*
X201900500Y-104075500D01*
X201900500Y-103383129D01*
X201909144Y-103353688D01*
X201915668Y-103323702D01*
X201919422Y-103318686D01*
X201920185Y-103316090D01*
X201936819Y-103295448D01*
X201971448Y-103260819D01*
X202032771Y-103227334D01*
X202059129Y-103224500D01*
X205423903Y-103224500D01*
X205490942Y-103244185D01*
X205511584Y-103260819D01*
X208415139Y-106164374D01*
X208415149Y-106164385D01*
X208419479Y-106168715D01*
X208419480Y-106168716D01*
X208531284Y-106280520D01*
X208605500Y-106323368D01*
X208668215Y-106359577D01*
X208820942Y-106400500D01*
X208820943Y-106400500D01*
X211613331Y-106400500D01*
X211613347Y-106400501D01*
X211620943Y-106400501D01*
X211779054Y-106400501D01*
X211779057Y-106400501D01*
X211931785Y-106359577D01*
X211994500Y-106323368D01*
X212068716Y-106280520D01*
X212180520Y-106168716D01*
X212180520Y-106168715D01*
X212197948Y-106151287D01*
X212197953Y-106151280D01*
X212380520Y-105968716D01*
X212480520Y-105868716D01*
X212559577Y-105731784D01*
X212593475Y-105605276D01*
X212600500Y-105579058D01*
X212600500Y-105420943D01*
X212600500Y-104945808D01*
X212620185Y-104878769D01*
X212636820Y-104858126D01*
X212668076Y-104826870D01*
X212668081Y-104826865D01*
X212751744Y-104685398D01*
X212797598Y-104527569D01*
X212800500Y-104490694D01*
X212800500Y-103109306D01*
X212797598Y-103072431D01*
X212791701Y-103052135D01*
X212751746Y-102914608D01*
X212751745Y-102914606D01*
X212751744Y-102914602D01*
X212750346Y-102912238D01*
X212749814Y-102910144D01*
X212748647Y-102907446D01*
X212749082Y-102907257D01*
X212733163Y-102844518D01*
X212755321Y-102778255D01*
X212809786Y-102734490D01*
X212879266Y-102727119D01*
X212925969Y-102746016D01*
X213020814Y-102809390D01*
X213020827Y-102809397D01*
X213166498Y-102869735D01*
X213166503Y-102869737D01*
X213321153Y-102900499D01*
X213321156Y-102900500D01*
X213321158Y-102900500D01*
X213478844Y-102900500D01*
X213478845Y-102900499D01*
X213633497Y-102869737D01*
X213779179Y-102809394D01*
X213910289Y-102721789D01*
X214021789Y-102610289D01*
X214109394Y-102479179D01*
X214169737Y-102333497D01*
X214200500Y-102178842D01*
X214200500Y-102021158D01*
X214200500Y-102021155D01*
X214200499Y-102021153D01*
X214180275Y-101919480D01*
X214169737Y-101866503D01*
X214169735Y-101866498D01*
X214109397Y-101720827D01*
X214109390Y-101720814D01*
X214021789Y-101589711D01*
X214021786Y-101589707D01*
X213910292Y-101478213D01*
X213910288Y-101478210D01*
X213779185Y-101390609D01*
X213779172Y-101390602D01*
X213633501Y-101330264D01*
X213633489Y-101330261D01*
X213478845Y-101299500D01*
X213478842Y-101299500D01*
X213321158Y-101299500D01*
X213321155Y-101299500D01*
X213166510Y-101330261D01*
X213166498Y-101330264D01*
X213020827Y-101390602D01*
X213020814Y-101390609D01*
X212889125Y-101478602D01*
X212822447Y-101499480D01*
X212820234Y-101499500D01*
X211362089Y-101499500D01*
X211203974Y-101499500D01*
X211051247Y-101540423D01*
X211051246Y-101540423D01*
X211051244Y-101540424D01*
X211051241Y-101540425D01*
X211001128Y-101569359D01*
X211001127Y-101569360D01*
X210965885Y-101589707D01*
X210914317Y-101619479D01*
X210914314Y-101619481D01*
X210843194Y-101690602D01*
X210802512Y-101731284D01*
X210802510Y-101731286D01*
X210422296Y-102111501D01*
X210045616Y-102488181D01*
X209984293Y-102521666D01*
X209957935Y-102524500D01*
X209784298Y-102524500D01*
X209747432Y-102527401D01*
X209747426Y-102527402D01*
X209589606Y-102573254D01*
X209589603Y-102573255D01*
X209448137Y-102656917D01*
X209448129Y-102656923D01*
X209331923Y-102773129D01*
X209331917Y-102773137D01*
X209248255Y-102914603D01*
X209248254Y-102914606D01*
X209202402Y-103072426D01*
X209202401Y-103072432D01*
X209199500Y-103109298D01*
X209199500Y-104490701D01*
X209202401Y-104527567D01*
X209202402Y-104527573D01*
X209248254Y-104685393D01*
X209248255Y-104685396D01*
X209331917Y-104826862D01*
X209331923Y-104826870D01*
X209448129Y-104943076D01*
X209448138Y-104943083D01*
X209491569Y-104968768D01*
X209539253Y-105019837D01*
X209551756Y-105088579D01*
X209525111Y-105153168D01*
X209467775Y-105193098D01*
X209428448Y-105199500D01*
X209200097Y-105199500D01*
X209133058Y-105179815D01*
X209112416Y-105163181D01*
X206211590Y-102262355D01*
X206211588Y-102262352D01*
X206092717Y-102143481D01*
X206092716Y-102143480D01*
X206003329Y-102091873D01*
X206003328Y-102091872D01*
X205955783Y-102064422D01*
X205899881Y-102049443D01*
X205803057Y-102023499D01*
X205644943Y-102023499D01*
X205637347Y-102023499D01*
X205637331Y-102023500D01*
X201845701Y-102023500D01*
X201845685Y-102023499D01*
X201838089Y-102023499D01*
X201679975Y-102023499D01*
X201624533Y-102038355D01*
X201527248Y-102064422D01*
X201479701Y-102091874D01*
X201479700Y-102091873D01*
X201474243Y-102095025D01*
X201447177Y-102101592D01*
X201421084Y-102111325D01*
X201413694Y-102109717D01*
X201406344Y-102111501D01*
X201380023Y-102102392D01*
X201352811Y-102096473D01*
X201344123Y-102089969D01*
X201340316Y-102088652D01*
X201324557Y-102075322D01*
X201287590Y-102038355D01*
X201287588Y-102038352D01*
X201168717Y-101919481D01*
X201168716Y-101919480D01*
X201076956Y-101866503D01*
X201076955Y-101866502D01*
X201031783Y-101840422D01*
X200975881Y-101825443D01*
X200879057Y-101799499D01*
X200720943Y-101799499D01*
X200713347Y-101799499D01*
X200713331Y-101799500D01*
X198179766Y-101799500D01*
X198112727Y-101779815D01*
X198110875Y-101778602D01*
X197979185Y-101690609D01*
X197979172Y-101690602D01*
X197833501Y-101630264D01*
X197833489Y-101630261D01*
X197678845Y-101599500D01*
X197678842Y-101599500D01*
X197521158Y-101599500D01*
X197521155Y-101599500D01*
X197366510Y-101630261D01*
X197366498Y-101630264D01*
X197220827Y-101690602D01*
X197220814Y-101690609D01*
X197089711Y-101778210D01*
X197089707Y-101778213D01*
X196978213Y-101889707D01*
X196978210Y-101889711D01*
X196890609Y-102020814D01*
X196890602Y-102020827D01*
X196830264Y-102166498D01*
X196830261Y-102166510D01*
X196799500Y-102321153D01*
X170982521Y-102321153D01*
X169386819Y-100725451D01*
X169353334Y-100664128D01*
X169350500Y-100637770D01*
X169350500Y-100204604D01*
X169359939Y-100157151D01*
X169369737Y-100133497D01*
X169400500Y-99978842D01*
X169400500Y-99821158D01*
X169400500Y-99821155D01*
X169400499Y-99821153D01*
X169369738Y-99666510D01*
X169369737Y-99666503D01*
X169369735Y-99666498D01*
X169309397Y-99520827D01*
X169309390Y-99520814D01*
X169221789Y-99389711D01*
X169221786Y-99389707D01*
X169110292Y-99278213D01*
X169110288Y-99278210D01*
X168979185Y-99190609D01*
X168979172Y-99190602D01*
X168833501Y-99130264D01*
X168833489Y-99130261D01*
X168678845Y-99099500D01*
X168678842Y-99099500D01*
X168521158Y-99099500D01*
X168521155Y-99099500D01*
X168366510Y-99130261D01*
X168366498Y-99130264D01*
X168220827Y-99190602D01*
X168220814Y-99190609D01*
X168089711Y-99278210D01*
X168089707Y-99278213D01*
X167978213Y-99389707D01*
X167978210Y-99389711D01*
X167890609Y-99520814D01*
X167890602Y-99520827D01*
X167830264Y-99666498D01*
X167830261Y-99666510D01*
X167799500Y-99821153D01*
X167799500Y-99978846D01*
X167830261Y-100133489D01*
X167830263Y-100133497D01*
X167840061Y-100157151D01*
X167849500Y-100204604D01*
X167849500Y-101073918D01*
X167849500Y-101073920D01*
X167849499Y-101073920D01*
X167878340Y-101218907D01*
X167878343Y-101218917D01*
X167934914Y-101355492D01*
X167934915Y-101355494D01*
X167934916Y-101355495D01*
X167958378Y-101390609D01*
X167967812Y-101404727D01*
X167967813Y-101404730D01*
X168017046Y-101478414D01*
X168017052Y-101478421D01*
X173395293Y-106856660D01*
X173428778Y-106917983D01*
X173430085Y-106963739D01*
X173409500Y-107093707D01*
X173409500Y-107093713D01*
X173409500Y-107306287D01*
X173442754Y-107516243D01*
X173471309Y-107604127D01*
X173508444Y-107718414D01*
X173604951Y-107907820D01*
X173729890Y-108079786D01*
X173880213Y-108230109D01*
X174052179Y-108355048D01*
X174052181Y-108355049D01*
X174052184Y-108355051D01*
X174241588Y-108451557D01*
X174443757Y-108517246D01*
X174653713Y-108550500D01*
X174653714Y-108550500D01*
X174866286Y-108550500D01*
X174866287Y-108550500D01*
X175076243Y-108517246D01*
X175278412Y-108451557D01*
X175467816Y-108355051D01*
X175542900Y-108300500D01*
X175639786Y-108230109D01*
X175639788Y-108230106D01*
X175639792Y-108230104D01*
X175790104Y-108079792D01*
X175797857Y-108069121D01*
X175846903Y-108001615D01*
X175851234Y-107998274D01*
X175853508Y-107993297D01*
X175878610Y-107977164D01*
X175902233Y-107958949D01*
X175908904Y-107957696D01*
X175912286Y-107955523D01*
X175947221Y-107950500D01*
X176112779Y-107950500D01*
X176179818Y-107970185D01*
X176213097Y-108001615D01*
X176269892Y-108079788D01*
X176420213Y-108230109D01*
X176592179Y-108355048D01*
X176592181Y-108355049D01*
X176592184Y-108355051D01*
X176781588Y-108451557D01*
X176983757Y-108517246D01*
X177193713Y-108550500D01*
X177193714Y-108550500D01*
X177406286Y-108550500D01*
X177406287Y-108550500D01*
X177616243Y-108517246D01*
X177818412Y-108451557D01*
X178007816Y-108355051D01*
X178179792Y-108230104D01*
X178293329Y-108116566D01*
X178354648Y-108083084D01*
X178424340Y-108088068D01*
X178480274Y-108129939D01*
X178497189Y-108160917D01*
X178546202Y-108292328D01*
X178546206Y-108292335D01*
X178632452Y-108407544D01*
X178632455Y-108407547D01*
X178747664Y-108493793D01*
X178747671Y-108493797D01*
X178882517Y-108544091D01*
X178882516Y-108544091D01*
X178889444Y-108544835D01*
X178942127Y-108550500D01*
X179937769Y-108550499D01*
X180004808Y-108570183D01*
X180025450Y-108586818D01*
X180726451Y-109287819D01*
X180759936Y-109349142D01*
X180754952Y-109418834D01*
X180713080Y-109474767D01*
X180647616Y-109499184D01*
X180638770Y-109499500D01*
X166080604Y-109499500D01*
X166072999Y-109499499D01*
X166072996Y-109499499D01*
X166043672Y-109499499D01*
X166014060Y-109499499D01*
X166014059Y-109499498D01*
X166000179Y-109498719D01*
X165909840Y-109488541D01*
X165882770Y-109482363D01*
X165803562Y-109454648D01*
X165778547Y-109442602D01*
X165707494Y-109397957D01*
X165685788Y-109380646D01*
X165626455Y-109321313D01*
X165609143Y-109299605D01*
X165601737Y-109287819D01*
X165564497Y-109228553D01*
X165552451Y-109203538D01*
X165524737Y-109124333D01*
X165518559Y-109097263D01*
X165514874Y-109064561D01*
X165508387Y-109006983D01*
X165507607Y-108993100D01*
X165507607Y-108934110D01*
X165507607Y-108934108D01*
X165504723Y-108923346D01*
X165500500Y-108891259D01*
X165500500Y-106862332D01*
X165906607Y-106862332D01*
X165906607Y-107137667D01*
X165906608Y-107137684D01*
X165942545Y-107410655D01*
X165942546Y-107410660D01*
X165942547Y-107410666D01*
X165942548Y-107410668D01*
X166013811Y-107676630D01*
X166119182Y-107931017D01*
X166119187Y-107931028D01*
X166198916Y-108069121D01*
X166256858Y-108169479D01*
X166256860Y-108169482D01*
X166256861Y-108169483D01*
X166424477Y-108387926D01*
X166424483Y-108387933D01*
X166619173Y-108582623D01*
X166619180Y-108582629D01*
X166671682Y-108622915D01*
X166837628Y-108750249D01*
X166954611Y-108817789D01*
X167076078Y-108887919D01*
X167076083Y-108887921D01*
X167076086Y-108887923D01*
X167330475Y-108993295D01*
X167596441Y-109064560D01*
X167869433Y-109100500D01*
X167869440Y-109100500D01*
X168144774Y-109100500D01*
X168144781Y-109100500D01*
X168417773Y-109064560D01*
X168683739Y-108993295D01*
X168938128Y-108887923D01*
X169176586Y-108750249D01*
X169395035Y-108582628D01*
X169589735Y-108387928D01*
X169757356Y-108169479D01*
X169895030Y-107931021D01*
X170000402Y-107676632D01*
X170071667Y-107410666D01*
X170107607Y-107137674D01*
X170107607Y-106862326D01*
X170071667Y-106589334D01*
X170000402Y-106323368D01*
X169895030Y-106068979D01*
X169895028Y-106068976D01*
X169895026Y-106068971D01*
X169821912Y-105942335D01*
X169757356Y-105830521D01*
X169681593Y-105731784D01*
X169589736Y-105612073D01*
X169589730Y-105612066D01*
X169395040Y-105417376D01*
X169395033Y-105417370D01*
X169176590Y-105249754D01*
X169176589Y-105249753D01*
X169176586Y-105249751D01*
X169078460Y-105193098D01*
X168938135Y-105112080D01*
X168938124Y-105112075D01*
X168683737Y-105006704D01*
X168519095Y-104962589D01*
X168417773Y-104935440D01*
X168417767Y-104935439D01*
X168417762Y-104935438D01*
X168144791Y-104899501D01*
X168144786Y-104899500D01*
X168144781Y-104899500D01*
X167869433Y-104899500D01*
X167869427Y-104899500D01*
X167869422Y-104899501D01*
X167596451Y-104935438D01*
X167596444Y-104935439D01*
X167596441Y-104935440D01*
X167567917Y-104943083D01*
X167330476Y-105006704D01*
X167076089Y-105112075D01*
X167076078Y-105112080D01*
X166837623Y-105249754D01*
X166619180Y-105417370D01*
X166619173Y-105417376D01*
X166424483Y-105612066D01*
X166424477Y-105612073D01*
X166256861Y-105830516D01*
X166119187Y-106068971D01*
X166119182Y-106068982D01*
X166064706Y-106200499D01*
X166031560Y-106280522D01*
X166013813Y-106323366D01*
X166013812Y-106323366D01*
X165942548Y-106589331D01*
X165942545Y-106589344D01*
X165906608Y-106862315D01*
X165906607Y-106862332D01*
X165500500Y-106862332D01*
X165500500Y-89324000D01*
X165520185Y-89256961D01*
X165572989Y-89211206D01*
X165624500Y-89200000D01*
X170000000Y-89200000D01*
X170000000Y-86321153D01*
X173299500Y-86321153D01*
X173299500Y-86478846D01*
X173330261Y-86633489D01*
X173330264Y-86633501D01*
X173390602Y-86779172D01*
X173390609Y-86779185D01*
X173478210Y-86910288D01*
X173478213Y-86910292D01*
X173589707Y-87021786D01*
X173589711Y-87021789D01*
X173720814Y-87109390D01*
X173720827Y-87109397D01*
X173866498Y-87169735D01*
X173866503Y-87169737D01*
X174021153Y-87200499D01*
X174021156Y-87200500D01*
X174021158Y-87200500D01*
X174178844Y-87200500D01*
X174178845Y-87200499D01*
X174333497Y-87169737D01*
X174479179Y-87109394D01*
X174481110Y-87108103D01*
X174482276Y-87107737D01*
X174484546Y-87106525D01*
X174484776Y-87106955D01*
X174547786Y-87087226D01*
X174615166Y-87105710D01*
X174618850Y-87108077D01*
X174620821Y-87109394D01*
X174620824Y-87109395D01*
X174620827Y-87109397D01*
X174766498Y-87169735D01*
X174766503Y-87169737D01*
X174921158Y-87200500D01*
X174921847Y-87200637D01*
X174983758Y-87233022D01*
X174985337Y-87234573D01*
X175131284Y-87380520D01*
X175131286Y-87380521D01*
X175131290Y-87380524D01*
X175268209Y-87459573D01*
X175268216Y-87459577D01*
X175420943Y-87500501D01*
X175420945Y-87500501D01*
X175586654Y-87500501D01*
X175586670Y-87500500D01*
X183399903Y-87500500D01*
X183466942Y-87520185D01*
X183487584Y-87536819D01*
X184863181Y-88912416D01*
X184896666Y-88973739D01*
X184899500Y-89000097D01*
X184899500Y-91913330D01*
X184899499Y-91913348D01*
X184899499Y-92079054D01*
X184899498Y-92079054D01*
X184940423Y-92231785D01*
X184969358Y-92281900D01*
X184969359Y-92281904D01*
X184969360Y-92281904D01*
X185019479Y-92368714D01*
X185019481Y-92368717D01*
X185138349Y-92487585D01*
X185138355Y-92487590D01*
X185615139Y-92964374D01*
X185615149Y-92964385D01*
X185619479Y-92968715D01*
X185619480Y-92968716D01*
X185731284Y-93080520D01*
X185818095Y-93130639D01*
X185818094Y-93130640D01*
X185818104Y-93130644D01*
X185821535Y-93132625D01*
X185823682Y-93133865D01*
X185871892Y-93184438D01*
X185872155Y-93184950D01*
X185944950Y-93327817D01*
X185944956Y-93327826D01*
X186069890Y-93499786D01*
X186220213Y-93650109D01*
X186392179Y-93775048D01*
X186392181Y-93775049D01*
X186392184Y-93775051D01*
X186581588Y-93871557D01*
X186783757Y-93937246D01*
X186993713Y-93970500D01*
X186993714Y-93970500D01*
X187206286Y-93970500D01*
X187206287Y-93970500D01*
X187416243Y-93937246D01*
X187618412Y-93871557D01*
X187807816Y-93775051D01*
X187832323Y-93757246D01*
X187979786Y-93650109D01*
X187979788Y-93650106D01*
X187979792Y-93650104D01*
X188130104Y-93499792D01*
X188130106Y-93499788D01*
X188130109Y-93499786D01*
X188255048Y-93327820D01*
X188255050Y-93327817D01*
X188255051Y-93327816D01*
X188351557Y-93138412D01*
X188417246Y-92936243D01*
X188450500Y-92726287D01*
X188450500Y-92513713D01*
X188417246Y-92303757D01*
X188351557Y-92101588D01*
X188255051Y-91912184D01*
X188255049Y-91912181D01*
X188255048Y-91912179D01*
X188130109Y-91740213D01*
X187979786Y-91589890D01*
X187807820Y-91464951D01*
X187807115Y-91464591D01*
X187799054Y-91460485D01*
X187748259Y-91412512D01*
X187731463Y-91344692D01*
X187753999Y-91278556D01*
X187799054Y-91239515D01*
X187807816Y-91235051D01*
X187871967Y-91188443D01*
X187979786Y-91110109D01*
X187979788Y-91110106D01*
X187979792Y-91110104D01*
X188130104Y-90959792D01*
X188130106Y-90959788D01*
X188130109Y-90959786D01*
X188255048Y-90787820D01*
X188255047Y-90787820D01*
X188255051Y-90787816D01*
X188351557Y-90598412D01*
X188417246Y-90396243D01*
X188450500Y-90186287D01*
X188450500Y-89973713D01*
X188417246Y-89763757D01*
X188351557Y-89561588D01*
X188255051Y-89372184D01*
X188255049Y-89372181D01*
X188255048Y-89372179D01*
X188130109Y-89200213D01*
X187979786Y-89049890D01*
X187807820Y-88924951D01*
X187807115Y-88924591D01*
X187799054Y-88920485D01*
X187748259Y-88872512D01*
X187731463Y-88804692D01*
X187753999Y-88738556D01*
X187799054Y-88699515D01*
X187807816Y-88695051D01*
X187871967Y-88648443D01*
X187979786Y-88570109D01*
X187979788Y-88570106D01*
X187979792Y-88570104D01*
X188130104Y-88419792D01*
X188130106Y-88419788D01*
X188130109Y-88419786D01*
X188255048Y-88247820D01*
X188255047Y-88247820D01*
X188255051Y-88247816D01*
X188351557Y-88058412D01*
X188417246Y-87856243D01*
X188450500Y-87646287D01*
X188450500Y-87433713D01*
X188417246Y-87223757D01*
X188351557Y-87021588D01*
X188255051Y-86832184D01*
X188255049Y-86832181D01*
X188255048Y-86832179D01*
X188130109Y-86660213D01*
X187979786Y-86509890D01*
X187807820Y-86384951D01*
X187618414Y-86288444D01*
X187618413Y-86288443D01*
X187618412Y-86288443D01*
X187416243Y-86222754D01*
X187416241Y-86222753D01*
X187416240Y-86222753D01*
X187254957Y-86197208D01*
X187206287Y-86189500D01*
X186993713Y-86189500D01*
X186945042Y-86197208D01*
X186783760Y-86222753D01*
X186581585Y-86288444D01*
X186392179Y-86384951D01*
X186220213Y-86509890D01*
X186069890Y-86660213D01*
X185944951Y-86832179D01*
X185848444Y-87021585D01*
X185782754Y-87223757D01*
X185778470Y-87250802D01*
X185748538Y-87313935D01*
X185689226Y-87350865D01*
X185619363Y-87349865D01*
X185568316Y-87319081D01*
X184387590Y-86138355D01*
X184387588Y-86138352D01*
X184268717Y-86019481D01*
X184268716Y-86019480D01*
X184181904Y-85969360D01*
X184176483Y-85966230D01*
X184128267Y-85915668D01*
X184115041Y-85847062D01*
X184135378Y-85789951D01*
X184139739Y-85783425D01*
X184209394Y-85679179D01*
X184269737Y-85533497D01*
X184300500Y-85378842D01*
X184300500Y-85221158D01*
X184300500Y-85221155D01*
X184300499Y-85221153D01*
X184284441Y-85140426D01*
X184269737Y-85066503D01*
X184269735Y-85066498D01*
X184209397Y-84920827D01*
X184209390Y-84920814D01*
X184121398Y-84789125D01*
X184100520Y-84722447D01*
X184100500Y-84720234D01*
X184100500Y-84079765D01*
X184120185Y-84012726D01*
X184121398Y-84010874D01*
X184142185Y-83979765D01*
X184209394Y-83879179D01*
X184269737Y-83733497D01*
X184300500Y-83578842D01*
X184300500Y-83521153D01*
X189499500Y-83521153D01*
X189499500Y-83678846D01*
X189530261Y-83833489D01*
X189530264Y-83833501D01*
X189590602Y-83979172D01*
X189590609Y-83979185D01*
X189678602Y-84110874D01*
X189699480Y-84177551D01*
X189699500Y-84179765D01*
X189699500Y-87020234D01*
X189679815Y-87087273D01*
X189678602Y-87089125D01*
X189590609Y-87220814D01*
X189590602Y-87220827D01*
X189530264Y-87366498D01*
X189530261Y-87366510D01*
X189499500Y-87521153D01*
X189499500Y-87678846D01*
X189530261Y-87833489D01*
X189530264Y-87833501D01*
X189590602Y-87979172D01*
X189590609Y-87979185D01*
X189678210Y-88110288D01*
X189678213Y-88110292D01*
X189789707Y-88221786D01*
X189789711Y-88221789D01*
X189920814Y-88309390D01*
X189920827Y-88309397D01*
X190066498Y-88369735D01*
X190066503Y-88369737D01*
X190221153Y-88400499D01*
X190221156Y-88400500D01*
X190221158Y-88400500D01*
X190378844Y-88400500D01*
X190378845Y-88400499D01*
X190533497Y-88369737D01*
X190679179Y-88309394D01*
X190810289Y-88221789D01*
X190921789Y-88110289D01*
X191009394Y-87979179D01*
X191069737Y-87833497D01*
X191100500Y-87678842D01*
X191100500Y-87521158D01*
X191100500Y-87521155D01*
X191100499Y-87521153D01*
X191072525Y-87380520D01*
X191069737Y-87366503D01*
X191062845Y-87349865D01*
X191009397Y-87220827D01*
X191009390Y-87220814D01*
X190921398Y-87089125D01*
X190900520Y-87022447D01*
X190900500Y-87020234D01*
X190900500Y-84179765D01*
X190920185Y-84112726D01*
X190921398Y-84110874D01*
X190938687Y-84085000D01*
X191009394Y-83979179D01*
X191069737Y-83833497D01*
X191100500Y-83678842D01*
X191100500Y-83521158D01*
X191100500Y-83521155D01*
X191100499Y-83521153D01*
X191069737Y-83366503D01*
X191050955Y-83321158D01*
X191050953Y-83321153D01*
X214799500Y-83321153D01*
X214799500Y-83478846D01*
X214830261Y-83633489D01*
X214830264Y-83633501D01*
X214890602Y-83779172D01*
X214890609Y-83779185D01*
X214978602Y-83910874D01*
X214999480Y-83977551D01*
X214999500Y-83979765D01*
X214999500Y-88820234D01*
X214979815Y-88887273D01*
X214978602Y-88889125D01*
X214890609Y-89020814D01*
X214890602Y-89020827D01*
X214830264Y-89166498D01*
X214830261Y-89166510D01*
X214799500Y-89321153D01*
X214799500Y-89478846D01*
X214830261Y-89633489D01*
X214830264Y-89633501D01*
X214890602Y-89779172D01*
X214890609Y-89779185D01*
X214978210Y-89910288D01*
X214978213Y-89910292D01*
X215089707Y-90021786D01*
X215089711Y-90021789D01*
X215220814Y-90109390D01*
X215220827Y-90109397D01*
X215366498Y-90169735D01*
X215366503Y-90169737D01*
X215521153Y-90200499D01*
X215521156Y-90200500D01*
X215521158Y-90200500D01*
X215678844Y-90200500D01*
X215678845Y-90200499D01*
X215833497Y-90169737D01*
X215979179Y-90109394D01*
X216110289Y-90021789D01*
X216221789Y-89910289D01*
X216309394Y-89779179D01*
X216369737Y-89633497D01*
X216400500Y-89478842D01*
X216400500Y-89321158D01*
X216400500Y-89321155D01*
X216400499Y-89321153D01*
X216369737Y-89166503D01*
X216336123Y-89085350D01*
X216309397Y-89020827D01*
X216309390Y-89020814D01*
X216221398Y-88889125D01*
X216200520Y-88822447D01*
X216200500Y-88820234D01*
X216200500Y-86702135D01*
X218749500Y-86702135D01*
X218749500Y-88497870D01*
X218749501Y-88497876D01*
X218755908Y-88557483D01*
X218806202Y-88692328D01*
X218806206Y-88692335D01*
X218892452Y-88807544D01*
X218892455Y-88807547D01*
X219007664Y-88893793D01*
X219007671Y-88893797D01*
X219139082Y-88942810D01*
X219195016Y-88984681D01*
X219219433Y-89050145D01*
X219204582Y-89118418D01*
X219183431Y-89146673D01*
X219069889Y-89260215D01*
X218944951Y-89432179D01*
X218848444Y-89621585D01*
X218782753Y-89823760D01*
X218769048Y-89910292D01*
X218749500Y-90033713D01*
X218749500Y-90246287D01*
X218782754Y-90456243D01*
X218832003Y-90607816D01*
X218848444Y-90658414D01*
X218944951Y-90847820D01*
X219069890Y-91019786D01*
X219220213Y-91170109D01*
X219392179Y-91295048D01*
X219392181Y-91295049D01*
X219392184Y-91295051D01*
X219581588Y-91391557D01*
X219783757Y-91457246D01*
X219993713Y-91490500D01*
X219993714Y-91490500D01*
X220206286Y-91490500D01*
X220206287Y-91490500D01*
X220416243Y-91457246D01*
X220618412Y-91391557D01*
X220807816Y-91295051D01*
X220884257Y-91239514D01*
X220979786Y-91170109D01*
X220979788Y-91170106D01*
X220979792Y-91170104D01*
X221130104Y-91019792D01*
X221130106Y-91019788D01*
X221130109Y-91019786D01*
X221255048Y-90847820D01*
X221255047Y-90847820D01*
X221255051Y-90847816D01*
X221351557Y-90658412D01*
X221417246Y-90456243D01*
X221450500Y-90246287D01*
X221450500Y-90033713D01*
X221417246Y-89823757D01*
X221351557Y-89621588D01*
X221255051Y-89432184D01*
X221255049Y-89432181D01*
X221255048Y-89432179D01*
X221130109Y-89260213D01*
X221016569Y-89146673D01*
X220983084Y-89085350D01*
X220988068Y-89015658D01*
X221029940Y-88959725D01*
X221060915Y-88942810D01*
X221192331Y-88893796D01*
X221307546Y-88807546D01*
X221393796Y-88692331D01*
X221444091Y-88557483D01*
X221450500Y-88497873D01*
X221450499Y-87253713D01*
X222849500Y-87253713D01*
X222849500Y-87466287D01*
X222882754Y-87676243D01*
X222933850Y-87833501D01*
X222948444Y-87878414D01*
X223044951Y-88067820D01*
X223169890Y-88239786D01*
X223320213Y-88390109D01*
X223492182Y-88515050D01*
X223500946Y-88519516D01*
X223551742Y-88567491D01*
X223568536Y-88635312D01*
X223545998Y-88701447D01*
X223500946Y-88740484D01*
X223492182Y-88744949D01*
X223320213Y-88869890D01*
X223169890Y-89020213D01*
X223044951Y-89192179D01*
X222948444Y-89381585D01*
X222882753Y-89583760D01*
X222849500Y-89793713D01*
X222849500Y-90006286D01*
X222882753Y-90216239D01*
X222948444Y-90418414D01*
X223044951Y-90607820D01*
X223169890Y-90779786D01*
X223320213Y-90930109D01*
X223492182Y-91055050D01*
X223500946Y-91059516D01*
X223551742Y-91107491D01*
X223568536Y-91175312D01*
X223545998Y-91241447D01*
X223500946Y-91280484D01*
X223492182Y-91284949D01*
X223320213Y-91409890D01*
X223169890Y-91560213D01*
X223044951Y-91732179D01*
X222948444Y-91921585D01*
X222882753Y-92123760D01*
X222849500Y-92333713D01*
X222849500Y-92546286D01*
X222882753Y-92756239D01*
X222948444Y-92958414D01*
X223044951Y-93147820D01*
X223169890Y-93319786D01*
X223320213Y-93470109D01*
X223492179Y-93595048D01*
X223492181Y-93595049D01*
X223492184Y-93595051D01*
X223681588Y-93691557D01*
X223883757Y-93757246D01*
X224093713Y-93790500D01*
X224093714Y-93790500D01*
X224306286Y-93790500D01*
X224306287Y-93790500D01*
X224516243Y-93757246D01*
X224718412Y-93691557D01*
X224907816Y-93595051D01*
X225038930Y-93499792D01*
X225079786Y-93470109D01*
X225079788Y-93470106D01*
X225079792Y-93470104D01*
X225230104Y-93319792D01*
X225230106Y-93319788D01*
X225230109Y-93319786D01*
X225355048Y-93147820D01*
X225355047Y-93147820D01*
X225355051Y-93147816D01*
X225451557Y-92958412D01*
X225517246Y-92756243D01*
X225550500Y-92546287D01*
X225550500Y-92333713D01*
X225517246Y-92123757D01*
X225451557Y-91921588D01*
X225355051Y-91732184D01*
X225355049Y-91732181D01*
X225355048Y-91732179D01*
X225230109Y-91560213D01*
X225079786Y-91409890D01*
X224907820Y-91284951D01*
X224907115Y-91284591D01*
X224899054Y-91280485D01*
X224848259Y-91232512D01*
X224831463Y-91164692D01*
X224853999Y-91098556D01*
X224899054Y-91059515D01*
X224907816Y-91055051D01*
X224956346Y-91019792D01*
X225079786Y-90930109D01*
X225079788Y-90930106D01*
X225079792Y-90930104D01*
X225230104Y-90779792D01*
X225230106Y-90779788D01*
X225230109Y-90779786D01*
X225355048Y-90607820D01*
X225355047Y-90607820D01*
X225355051Y-90607816D01*
X225451557Y-90418412D01*
X225517246Y-90216243D01*
X225550500Y-90006287D01*
X225550500Y-89793713D01*
X225517246Y-89583757D01*
X225451557Y-89381588D01*
X225355051Y-89192184D01*
X225355049Y-89192181D01*
X225355048Y-89192179D01*
X225230109Y-89020213D01*
X225079786Y-88869890D01*
X224907820Y-88744951D01*
X224907115Y-88744591D01*
X224899054Y-88740485D01*
X224848259Y-88692512D01*
X224831463Y-88624692D01*
X224853999Y-88558556D01*
X224899054Y-88519515D01*
X224907816Y-88515051D01*
X225038930Y-88419792D01*
X225079786Y-88390109D01*
X225079788Y-88390106D01*
X225079792Y-88390104D01*
X225230104Y-88239792D01*
X225230106Y-88239788D01*
X225230109Y-88239786D01*
X225355048Y-88067820D01*
X225355047Y-88067820D01*
X225355051Y-88067816D01*
X225451557Y-87878412D01*
X225517246Y-87676243D01*
X225550500Y-87466287D01*
X225550500Y-87253713D01*
X225517246Y-87043757D01*
X225451557Y-86841588D01*
X225355051Y-86652184D01*
X225355049Y-86652181D01*
X225355048Y-86652179D01*
X225230109Y-86480213D01*
X225079786Y-86329890D01*
X224907820Y-86204951D01*
X224718414Y-86108444D01*
X224718413Y-86108443D01*
X224718412Y-86108443D01*
X224516243Y-86042754D01*
X224516241Y-86042753D01*
X224516240Y-86042753D01*
X224354957Y-86017208D01*
X224306287Y-86009500D01*
X224093713Y-86009500D01*
X224045042Y-86017208D01*
X223883760Y-86042753D01*
X223681585Y-86108444D01*
X223492179Y-86204951D01*
X223320213Y-86329890D01*
X223169890Y-86480213D01*
X223044951Y-86652179D01*
X222948444Y-86841585D01*
X222882753Y-87043760D01*
X222862800Y-87169738D01*
X222849500Y-87253713D01*
X221450499Y-87253713D01*
X221450499Y-86702128D01*
X221444091Y-86642517D01*
X221440728Y-86633501D01*
X221393797Y-86507671D01*
X221393793Y-86507664D01*
X221307547Y-86392455D01*
X221307544Y-86392452D01*
X221192335Y-86306206D01*
X221192328Y-86306202D01*
X221057482Y-86255908D01*
X221057483Y-86255908D01*
X220997883Y-86249501D01*
X220997881Y-86249500D01*
X220997873Y-86249500D01*
X220997864Y-86249500D01*
X219202129Y-86249500D01*
X219202123Y-86249501D01*
X219142516Y-86255908D01*
X219007671Y-86306202D01*
X219007664Y-86306206D01*
X218892455Y-86392452D01*
X218892452Y-86392455D01*
X218806206Y-86507664D01*
X218806202Y-86507671D01*
X218755908Y-86642517D01*
X218754006Y-86660213D01*
X218749501Y-86702123D01*
X218749500Y-86702135D01*
X216200500Y-86702135D01*
X216200500Y-83979765D01*
X216220185Y-83912726D01*
X216221398Y-83910874D01*
X216309390Y-83779185D01*
X216309390Y-83779184D01*
X216309394Y-83779179D01*
X216369737Y-83633497D01*
X216400500Y-83478842D01*
X216400500Y-83321158D01*
X216400500Y-83321155D01*
X216400499Y-83321153D01*
X216380543Y-83220827D01*
X216369737Y-83166503D01*
X216337929Y-83089711D01*
X216309397Y-83020827D01*
X216309390Y-83020814D01*
X216221789Y-82889711D01*
X216221786Y-82889707D01*
X216110292Y-82778213D01*
X216110288Y-82778210D01*
X215979185Y-82690609D01*
X215979172Y-82690602D01*
X215833501Y-82630264D01*
X215833489Y-82630261D01*
X215678845Y-82599500D01*
X215678842Y-82599500D01*
X215521158Y-82599500D01*
X215521155Y-82599500D01*
X215366510Y-82630261D01*
X215366498Y-82630264D01*
X215220827Y-82690602D01*
X215220814Y-82690609D01*
X215089711Y-82778210D01*
X215089707Y-82778213D01*
X214978213Y-82889707D01*
X214978210Y-82889711D01*
X214890609Y-83020814D01*
X214890602Y-83020827D01*
X214830264Y-83166498D01*
X214830261Y-83166510D01*
X214799500Y-83321153D01*
X191050953Y-83321153D01*
X191009397Y-83220827D01*
X191009390Y-83220814D01*
X190921789Y-83089711D01*
X190921786Y-83089707D01*
X190810292Y-82978213D01*
X190810288Y-82978210D01*
X190679185Y-82890609D01*
X190679172Y-82890602D01*
X190533501Y-82830264D01*
X190533489Y-82830261D01*
X190378845Y-82799500D01*
X190378842Y-82799500D01*
X190221158Y-82799500D01*
X190221155Y-82799500D01*
X190066510Y-82830261D01*
X190066498Y-82830264D01*
X189920827Y-82890602D01*
X189920814Y-82890609D01*
X189789711Y-82978210D01*
X189789707Y-82978213D01*
X189678213Y-83089707D01*
X189678210Y-83089711D01*
X189590609Y-83220814D01*
X189590602Y-83220827D01*
X189530264Y-83366498D01*
X189530261Y-83366510D01*
X189499500Y-83521153D01*
X184300500Y-83521153D01*
X184300500Y-83421158D01*
X184300500Y-83421155D01*
X184300499Y-83421153D01*
X184289628Y-83366503D01*
X184269737Y-83266503D01*
X184228314Y-83166498D01*
X184209397Y-83120827D01*
X184209390Y-83120814D01*
X184121789Y-82989711D01*
X184121786Y-82989707D01*
X184010292Y-82878213D01*
X184010288Y-82878210D01*
X183879185Y-82790609D01*
X183879172Y-82790602D01*
X183733501Y-82730264D01*
X183733489Y-82730261D01*
X183578845Y-82699500D01*
X183578842Y-82699500D01*
X183421158Y-82699500D01*
X183421155Y-82699500D01*
X183266510Y-82730261D01*
X183266498Y-82730264D01*
X183120827Y-82790602D01*
X183120814Y-82790609D01*
X182989711Y-82878210D01*
X182989707Y-82878213D01*
X182878213Y-82989707D01*
X182878210Y-82989711D01*
X182790609Y-83120814D01*
X182790602Y-83120827D01*
X182730264Y-83266498D01*
X182730261Y-83266510D01*
X182699500Y-83421153D01*
X182699500Y-83578846D01*
X182730261Y-83733489D01*
X182730264Y-83733501D01*
X182790602Y-83879172D01*
X182790609Y-83879185D01*
X182878602Y-84010874D01*
X182899480Y-84077551D01*
X182899500Y-84079765D01*
X182899500Y-84720234D01*
X182879815Y-84787273D01*
X182878602Y-84789125D01*
X182790609Y-84920814D01*
X182790602Y-84920827D01*
X182730264Y-85066498D01*
X182730261Y-85066510D01*
X182699500Y-85221153D01*
X182699500Y-85378846D01*
X182730261Y-85533489D01*
X182730264Y-85533501D01*
X182790602Y-85679172D01*
X182790610Y-85679187D01*
X182808933Y-85706608D01*
X182829812Y-85773285D01*
X182811328Y-85840666D01*
X182759350Y-85887356D01*
X182705832Y-85899500D01*
X178824500Y-85899500D01*
X178757461Y-85879815D01*
X178711706Y-85827011D01*
X178700500Y-85775500D01*
X178700499Y-84774998D01*
X178700498Y-84774980D01*
X178689999Y-84672203D01*
X178689998Y-84672200D01*
X178634814Y-84505666D01*
X178542712Y-84356344D01*
X178418656Y-84232288D01*
X178269334Y-84140186D01*
X178102797Y-84085001D01*
X178102795Y-84085000D01*
X178000010Y-84074500D01*
X177399998Y-84074500D01*
X177399980Y-84074501D01*
X177297203Y-84085000D01*
X177297200Y-84085001D01*
X177130668Y-84140185D01*
X177130663Y-84140187D01*
X176981342Y-84232289D01*
X176857289Y-84356342D01*
X176765187Y-84505663D01*
X176765186Y-84505666D01*
X176710001Y-84672203D01*
X176710001Y-84672204D01*
X176710000Y-84672204D01*
X176699500Y-84774983D01*
X176699500Y-84774996D01*
X176699501Y-85775500D01*
X176696950Y-85784186D01*
X176698239Y-85793147D01*
X176687261Y-85817183D01*
X176679817Y-85842539D01*
X176672974Y-85848467D01*
X176669214Y-85856703D01*
X176646982Y-85870989D01*
X176627013Y-85888294D01*
X176616497Y-85890581D01*
X176610436Y-85894477D01*
X176575501Y-85899500D01*
X176400097Y-85899500D01*
X176333058Y-85879815D01*
X176312416Y-85863181D01*
X175787590Y-85338355D01*
X175787588Y-85338352D01*
X175668717Y-85219481D01*
X175668716Y-85219480D01*
X175581904Y-85169360D01*
X175581904Y-85169359D01*
X175581900Y-85169358D01*
X175531785Y-85140423D01*
X175379057Y-85099499D01*
X175220943Y-85099499D01*
X175213347Y-85099499D01*
X175213331Y-85099500D01*
X174420941Y-85099500D01*
X174380800Y-85110255D01*
X174380801Y-85110256D01*
X174268214Y-85140423D01*
X174268209Y-85140426D01*
X174131290Y-85219475D01*
X174131282Y-85219481D01*
X173619482Y-85731281D01*
X173619475Y-85731290D01*
X173604200Y-85757747D01*
X173584496Y-85783425D01*
X173478213Y-85889707D01*
X173478210Y-85889711D01*
X173390609Y-86020814D01*
X173390602Y-86020827D01*
X173330264Y-86166498D01*
X173330261Y-86166510D01*
X173299500Y-86321153D01*
X170000000Y-86321153D01*
X170000000Y-77200000D01*
X165624500Y-77200000D01*
X165557461Y-77180315D01*
X165511706Y-77127511D01*
X165500500Y-77076000D01*
X165500500Y-75721153D01*
X171199500Y-75721153D01*
X171199500Y-75878846D01*
X171230261Y-76033489D01*
X171230264Y-76033501D01*
X171290602Y-76179172D01*
X171290609Y-76179185D01*
X171378210Y-76310288D01*
X171378213Y-76310292D01*
X171489707Y-76421786D01*
X171489711Y-76421789D01*
X171620814Y-76509390D01*
X171620827Y-76509397D01*
X171766498Y-76569735D01*
X171766503Y-76569737D01*
X171889974Y-76594297D01*
X171921153Y-76600499D01*
X171921156Y-76600500D01*
X171975500Y-76600500D01*
X172042539Y-76620185D01*
X172088294Y-76672989D01*
X172099500Y-76724500D01*
X172099500Y-76778846D01*
X172130261Y-76933489D01*
X172130264Y-76933501D01*
X172190602Y-77079172D01*
X172190609Y-77079185D01*
X172278210Y-77210288D01*
X172278213Y-77210292D01*
X172389707Y-77321786D01*
X172389711Y-77321789D01*
X172520814Y-77409390D01*
X172520827Y-77409397D01*
X172666498Y-77469735D01*
X172666503Y-77469737D01*
X172821153Y-77500499D01*
X172821156Y-77500500D01*
X172821158Y-77500500D01*
X172978844Y-77500500D01*
X172978845Y-77500499D01*
X173133497Y-77469737D01*
X173279179Y-77409394D01*
X173374828Y-77345482D01*
X173441503Y-77324606D01*
X173508883Y-77343090D01*
X173555573Y-77395068D01*
X173558278Y-77401133D01*
X173590604Y-77479175D01*
X173590609Y-77479185D01*
X173678210Y-77610288D01*
X173678213Y-77610292D01*
X173789707Y-77721786D01*
X173789711Y-77721789D01*
X173920814Y-77809390D01*
X173920827Y-77809397D01*
X174066498Y-77869735D01*
X174066503Y-77869737D01*
X174221153Y-77900499D01*
X174221156Y-77900500D01*
X174221158Y-77900500D01*
X174232667Y-77900500D01*
X174248152Y-77904649D01*
X174261897Y-77903994D01*
X174294660Y-77917109D01*
X174318092Y-77930637D01*
X174318094Y-77930639D01*
X174318095Y-77930639D01*
X174368215Y-77959577D01*
X174520943Y-78000500D01*
X176920943Y-78000500D01*
X188313331Y-78000500D01*
X188313347Y-78000501D01*
X188320943Y-78000501D01*
X188479054Y-78000501D01*
X188479057Y-78000501D01*
X188631785Y-77959577D01*
X188681904Y-77930639D01*
X188768716Y-77880520D01*
X188880520Y-77768716D01*
X188880520Y-77768714D01*
X188890728Y-77758507D01*
X188890729Y-77758504D01*
X193062417Y-73586818D01*
X193123740Y-73553333D01*
X193150098Y-73550499D01*
X194497871Y-73550499D01*
X194497872Y-73550499D01*
X194557483Y-73544091D01*
X194692331Y-73493796D01*
X194807546Y-73407546D01*
X194893796Y-73292331D01*
X194944091Y-73157483D01*
X194950500Y-73097873D01*
X194950500Y-72862332D01*
X244899500Y-72862332D01*
X244899500Y-73137667D01*
X244899501Y-73137684D01*
X244935438Y-73410655D01*
X244935439Y-73410660D01*
X244935440Y-73410666D01*
X244957715Y-73493797D01*
X245006704Y-73676630D01*
X245112075Y-73931017D01*
X245112080Y-73931028D01*
X245191809Y-74069121D01*
X245249751Y-74169479D01*
X245249753Y-74169482D01*
X245249754Y-74169483D01*
X245417370Y-74387926D01*
X245417376Y-74387933D01*
X245612066Y-74582623D01*
X245612072Y-74582628D01*
X245830521Y-74750249D01*
X245983778Y-74838732D01*
X246068971Y-74887919D01*
X246068976Y-74887921D01*
X246068979Y-74887923D01*
X246323368Y-74993295D01*
X246589334Y-75064560D01*
X246862326Y-75100500D01*
X246862333Y-75100500D01*
X247137667Y-75100500D01*
X247137674Y-75100500D01*
X247410666Y-75064560D01*
X247676632Y-74993295D01*
X247931021Y-74887923D01*
X248169479Y-74750249D01*
X248387928Y-74582628D01*
X248582628Y-74387928D01*
X248750249Y-74169479D01*
X248887923Y-73931021D01*
X248993295Y-73676632D01*
X249064560Y-73410666D01*
X249100500Y-73137674D01*
X249100500Y-72862326D01*
X249064560Y-72589334D01*
X248993295Y-72323368D01*
X248887923Y-72068979D01*
X248887921Y-72068976D01*
X248887919Y-72068971D01*
X248810055Y-71934108D01*
X248750249Y-71830521D01*
X248582628Y-71612072D01*
X248582623Y-71612066D01*
X248387933Y-71417376D01*
X248387926Y-71417370D01*
X248169483Y-71249754D01*
X248169482Y-71249753D01*
X248169479Y-71249751D01*
X248052495Y-71182210D01*
X247931028Y-71112080D01*
X247931017Y-71112075D01*
X247676630Y-71006704D01*
X247543649Y-70971072D01*
X247410666Y-70935440D01*
X247410660Y-70935439D01*
X247410655Y-70935438D01*
X247137684Y-70899501D01*
X247137679Y-70899500D01*
X247137674Y-70899500D01*
X246862326Y-70899500D01*
X246862320Y-70899500D01*
X246862315Y-70899501D01*
X246589344Y-70935438D01*
X246589337Y-70935439D01*
X246589334Y-70935440D01*
X246540806Y-70948443D01*
X246323369Y-71006704D01*
X246068982Y-71112075D01*
X246068971Y-71112080D01*
X245830516Y-71249754D01*
X245612073Y-71417370D01*
X245612066Y-71417376D01*
X245417376Y-71612066D01*
X245417370Y-71612073D01*
X245249754Y-71830516D01*
X245112080Y-72068971D01*
X245112075Y-72068982D01*
X245006704Y-72323369D01*
X244935441Y-72589331D01*
X244935438Y-72589344D01*
X244899501Y-72862315D01*
X244899500Y-72862332D01*
X194950500Y-72862332D01*
X194950499Y-72163934D01*
X194950499Y-71302129D01*
X194950498Y-71302123D01*
X194944091Y-71242516D01*
X194893797Y-71107671D01*
X194893793Y-71107664D01*
X194807547Y-70992455D01*
X194807544Y-70992452D01*
X194692335Y-70906206D01*
X194692328Y-70906202D01*
X194557482Y-70855908D01*
X194557483Y-70855908D01*
X194497883Y-70849501D01*
X194497881Y-70849500D01*
X194497873Y-70849500D01*
X194497864Y-70849500D01*
X192702129Y-70849500D01*
X192702123Y-70849501D01*
X192642516Y-70855908D01*
X192507671Y-70906202D01*
X192507664Y-70906206D01*
X192392455Y-70992452D01*
X192392452Y-70992455D01*
X192306206Y-71107664D01*
X192306203Y-71107669D01*
X192257189Y-71239083D01*
X192215317Y-71295016D01*
X192149853Y-71319433D01*
X192081580Y-71304581D01*
X192053326Y-71283430D01*
X191939786Y-71169890D01*
X191767820Y-71044951D01*
X191578414Y-70948444D01*
X191578413Y-70948443D01*
X191578412Y-70948443D01*
X191376243Y-70882754D01*
X191376241Y-70882753D01*
X191376240Y-70882753D01*
X191214957Y-70857208D01*
X191166287Y-70849500D01*
X190953713Y-70849500D01*
X190905042Y-70857208D01*
X190743760Y-70882753D01*
X190541585Y-70948444D01*
X190352179Y-71044951D01*
X190180213Y-71169890D01*
X190029890Y-71320213D01*
X189904949Y-71492182D01*
X189900484Y-71500946D01*
X189852509Y-71551742D01*
X189784688Y-71568536D01*
X189718553Y-71545998D01*
X189679516Y-71500946D01*
X189675050Y-71492182D01*
X189550109Y-71320213D01*
X189399786Y-71169890D01*
X189227820Y-71044951D01*
X189038414Y-70948444D01*
X189038413Y-70948443D01*
X189038412Y-70948443D01*
X188836243Y-70882754D01*
X188836241Y-70882753D01*
X188836240Y-70882753D01*
X188674957Y-70857208D01*
X188626287Y-70849500D01*
X188413713Y-70849500D01*
X188365042Y-70857208D01*
X188203760Y-70882753D01*
X188001585Y-70948444D01*
X187812179Y-71044951D01*
X187640213Y-71169890D01*
X187489890Y-71320213D01*
X187364951Y-71492179D01*
X187268444Y-71681585D01*
X187202753Y-71883760D01*
X187173417Y-72068982D01*
X187169500Y-72093713D01*
X187169500Y-72306287D01*
X187172206Y-72323369D01*
X187202754Y-72516244D01*
X187202754Y-72516247D01*
X187216491Y-72558523D01*
X187218486Y-72628364D01*
X187186241Y-72684522D01*
X184707584Y-75163181D01*
X184646261Y-75196666D01*
X184619903Y-75199500D01*
X172579766Y-75199500D01*
X172512727Y-75179815D01*
X172510875Y-75178602D01*
X172379185Y-75090609D01*
X172379172Y-75090602D01*
X172233501Y-75030264D01*
X172233489Y-75030261D01*
X172078845Y-74999500D01*
X172078842Y-74999500D01*
X171921158Y-74999500D01*
X171921155Y-74999500D01*
X171766510Y-75030261D01*
X171766498Y-75030264D01*
X171620827Y-75090602D01*
X171620814Y-75090609D01*
X171489711Y-75178210D01*
X171489707Y-75178213D01*
X171378213Y-75289707D01*
X171378210Y-75289711D01*
X171290609Y-75420814D01*
X171290602Y-75420827D01*
X171230264Y-75566498D01*
X171230261Y-75566510D01*
X171199500Y-75721153D01*
X165500500Y-75721153D01*
X165500500Y-72862332D01*
X165899500Y-72862332D01*
X165899500Y-73137667D01*
X165899501Y-73137684D01*
X165935438Y-73410655D01*
X165935439Y-73410660D01*
X165935440Y-73410666D01*
X165957715Y-73493797D01*
X166006704Y-73676630D01*
X166112075Y-73931017D01*
X166112080Y-73931028D01*
X166191809Y-74069121D01*
X166249751Y-74169479D01*
X166249753Y-74169482D01*
X166249754Y-74169483D01*
X166417370Y-74387926D01*
X166417376Y-74387933D01*
X166612066Y-74582623D01*
X166612072Y-74582628D01*
X166830521Y-74750249D01*
X166983778Y-74838732D01*
X167068971Y-74887919D01*
X167068976Y-74887921D01*
X167068979Y-74887923D01*
X167323368Y-74993295D01*
X167589334Y-75064560D01*
X167862326Y-75100500D01*
X167862333Y-75100500D01*
X168137667Y-75100500D01*
X168137674Y-75100500D01*
X168410666Y-75064560D01*
X168676632Y-74993295D01*
X168931021Y-74887923D01*
X169169479Y-74750249D01*
X169387928Y-74582628D01*
X169582628Y-74387928D01*
X169750249Y-74169479D01*
X169887923Y-73931021D01*
X169993295Y-73676632D01*
X170064560Y-73410666D01*
X170100500Y-73137674D01*
X170100500Y-72862326D01*
X170064560Y-72589334D01*
X169993295Y-72323368D01*
X169887923Y-72068979D01*
X169887921Y-72068976D01*
X169887919Y-72068971D01*
X169810055Y-71934108D01*
X169750249Y-71830521D01*
X169582628Y-71612072D01*
X169582623Y-71612066D01*
X169387933Y-71417376D01*
X169387926Y-71417370D01*
X169169483Y-71249754D01*
X169169482Y-71249753D01*
X169169479Y-71249751D01*
X169052495Y-71182210D01*
X168931028Y-71112080D01*
X168931017Y-71112075D01*
X168676630Y-71006704D01*
X168543649Y-70971072D01*
X168410666Y-70935440D01*
X168410660Y-70935439D01*
X168410655Y-70935438D01*
X168137684Y-70899501D01*
X168137679Y-70899500D01*
X168137674Y-70899500D01*
X167862326Y-70899500D01*
X167862320Y-70899500D01*
X167862315Y-70899501D01*
X167589344Y-70935438D01*
X167589337Y-70935439D01*
X167589334Y-70935440D01*
X167540806Y-70948443D01*
X167323369Y-71006704D01*
X167068982Y-71112075D01*
X167068971Y-71112080D01*
X166830516Y-71249754D01*
X166612073Y-71417370D01*
X166612066Y-71417376D01*
X166417376Y-71612066D01*
X166417370Y-71612073D01*
X166249754Y-71830516D01*
X166112080Y-72068971D01*
X166112075Y-72068982D01*
X166006704Y-72323369D01*
X165935441Y-72589331D01*
X165935438Y-72589344D01*
X165899501Y-72862315D01*
X165899500Y-72862332D01*
X165500500Y-72862332D01*
X165500500Y-72004427D01*
X165500816Y-71995581D01*
X165511318Y-71848748D01*
X165515130Y-71795436D01*
X165517646Y-71777938D01*
X165559356Y-71586199D01*
X165564333Y-71569248D01*
X165632911Y-71385385D01*
X165640259Y-71369298D01*
X165702815Y-71254734D01*
X165734291Y-71197089D01*
X165743845Y-71182221D01*
X165861448Y-71025123D01*
X165873020Y-71011769D01*
X166011769Y-70873020D01*
X166025123Y-70861448D01*
X166182221Y-70743845D01*
X166197089Y-70734291D01*
X166369298Y-70640258D01*
X166385385Y-70632911D01*
X166569248Y-70564333D01*
X166586199Y-70559356D01*
X166777938Y-70517646D01*
X166795436Y-70515130D01*
X166995582Y-70500816D01*
X167004428Y-70500500D01*
X167065892Y-70500500D01*
X247934108Y-70500500D01*
X247995572Y-70500500D01*
X248004418Y-70500816D01*
G37*
%TD.AperFunction*%
%TD*%
M02*
