%TF.GenerationSoftware,KiCad,Pcbnew,9.0.0*%
%TF.CreationDate,2026-04-05T16:20:28+02:00*%
%TF.ProjectId,ble beacon,626c6520-6265-4616-936f-6e2e6b696361,rev?*%
%TF.SameCoordinates,Original*%
%TF.FileFunction,Soldermask,Top*%
%TF.FilePolarity,Negative*%
%FSLAX46Y46*%
G04 Gerber Fmt 4.6, Leading zero omitted, Abs format (unit mm)*
G04 Created by KiCad (PCBNEW 9.0.0) date 2026-04-05 16:20:28*
%MOMM*%
%LPD*%
G01*
G04 APERTURE LIST*
G04 Aperture macros list*
%AMRoundRect*
0 Rectangle with rounded corners*
0 $1 Rounding radius*
0 $2 $3 $4 $5 $6 $7 $8 $9 X,Y pos of 4 corners*
0 Add a 4 corners polygon primitive as box body*
4,1,4,$2,$3,$4,$5,$6,$7,$8,$9,$2,$3,0*
0 Add four circle primitives for the rounded corners*
1,1,$1+$1,$2,$3*
1,1,$1+$1,$4,$5*
1,1,$1+$1,$6,$7*
1,1,$1+$1,$8,$9*
0 Add four rect primitives between the rounded corners*
20,1,$1+$1,$2,$3,$4,$5,0*
20,1,$1+$1,$4,$5,$6,$7,0*
20,1,$1+$1,$6,$7,$8,$9,0*
20,1,$1+$1,$8,$9,$2,$3,0*%
%AMFreePoly0*
4,1,23,0.550000,-0.750000,0.000000,-0.750000,0.000000,-0.745722,-0.065263,-0.745722,-0.191342,-0.711940,-0.304381,-0.646677,-0.396677,-0.554381,-0.461940,-0.441342,-0.495722,-0.315263,-0.495722,-0.250000,-0.500000,-0.250000,-0.500000,0.250000,-0.495722,0.250000,-0.495722,0.315263,-0.461940,0.441342,-0.396677,0.554381,-0.304381,0.646677,-0.191342,0.711940,-0.065263,0.745722,0.000000,0.745722,
0.000000,0.750000,0.550000,0.750000,0.550000,-0.750000,0.550000,-0.750000,$1*%
%AMFreePoly1*
4,1,23,0.000000,0.745722,0.065263,0.745722,0.191342,0.711940,0.304381,0.646677,0.396677,0.554381,0.461940,0.441342,0.495722,0.315263,0.495722,0.250000,0.500000,0.250000,0.500000,-0.250000,0.495722,-0.250000,0.495722,-0.315263,0.461940,-0.441342,0.396677,-0.554381,0.304381,-0.646677,0.191342,-0.711940,0.065263,-0.745722,0.000000,-0.745722,0.000000,-0.750000,-0.550000,-0.750000,
-0.550000,0.750000,0.000000,0.750000,0.000000,0.745722,0.000000,0.745722,$1*%
G04 Aperture macros list end*
%ADD10R,1.700000X1.700000*%
%ADD11O,1.700000X1.700000*%
%ADD12FreePoly0,270.000000*%
%ADD13R,1.500000X1.000000*%
%ADD14FreePoly1,270.000000*%
%ADD15RoundRect,0.250000X-0.262500X-0.450000X0.262500X-0.450000X0.262500X0.450000X-0.262500X0.450000X0*%
%ADD16RoundRect,0.218750X-0.218750X-0.256250X0.218750X-0.256250X0.218750X0.256250X-0.218750X0.256250X0*%
%ADD17RoundRect,0.250000X-0.250000X-0.475000X0.250000X-0.475000X0.250000X0.475000X-0.250000X0.475000X0*%
%ADD18R,0.800000X1.400000*%
%ADD19R,0.400000X1.400000*%
%ADD20R,1.400000X0.400000*%
%ADD21R,0.400000X1.000000*%
%ADD22RoundRect,0.250000X-0.465000X-2.500000X0.465000X-2.500000X0.465000X2.500000X-0.465000X2.500000X0*%
G04 APERTURE END LIST*
%TO.C,JP1*%
G36*
X169350000Y-97950000D02*
G01*
X167850000Y-97950000D01*
X167850000Y-99450000D01*
X169350000Y-99450000D01*
X169350000Y-97950000D01*
G37*
%TD*%
D10*
%TO.C,J7*%
X220100000Y-87600000D03*
D11*
X220100000Y-90140000D03*
%TD*%
D12*
%TO.C,JP1*%
X168600000Y-97400000D03*
D13*
X168600000Y-98700000D03*
D14*
X168600000Y-100000000D03*
%TD*%
D10*
%TO.C,J1*%
X179840000Y-107200000D03*
D11*
X177300000Y-107200000D03*
X174760000Y-107200000D03*
%TD*%
D15*
%TO.C,R1*%
X178287500Y-72900000D03*
X180112500Y-72900000D03*
%TD*%
D16*
%TO.C,D1*%
X178452500Y-75170000D03*
X180027500Y-75170000D03*
%TD*%
D17*
%TO.C,C2*%
X171950000Y-93710000D03*
X173850000Y-93710000D03*
%TD*%
D10*
%TO.C,J5*%
X187100000Y-85000000D03*
D11*
X187100000Y-87540000D03*
X187100000Y-90080000D03*
X187100000Y-92620000D03*
%TD*%
D10*
%TO.C,J6*%
X224200000Y-84820000D03*
D11*
X224200000Y-87360000D03*
X224200000Y-89900000D03*
X224200000Y-92440000D03*
%TD*%
D10*
%TO.C,J4*%
X193600000Y-72200000D03*
D11*
X191060000Y-72200000D03*
X188520000Y-72200000D03*
X185980000Y-72200000D03*
%TD*%
D17*
%TO.C,C3*%
X171950000Y-91600000D03*
X173850000Y-91600000D03*
%TD*%
D15*
%TO.C,R2*%
X173400000Y-72900000D03*
X175225000Y-72900000D03*
%TD*%
D18*
%TO.C,U1*%
X170400000Y-87800000D03*
D19*
X173400000Y-87800000D03*
X174100000Y-87800000D03*
X174800000Y-87800000D03*
X175500000Y-87800000D03*
X176200000Y-87800000D03*
X176900000Y-87800000D03*
X177600000Y-87800000D03*
X178300000Y-87800000D03*
X179000000Y-87800000D03*
X179700000Y-87800000D03*
D20*
X181800000Y-87400000D03*
X181800000Y-86700000D03*
X181800000Y-86000000D03*
X181800000Y-85300000D03*
X181800000Y-84600000D03*
X181800000Y-83900000D03*
X181800000Y-83200000D03*
X181800000Y-82500000D03*
X181800000Y-81800000D03*
X181800000Y-81100000D03*
X181800000Y-80400000D03*
X181800000Y-79700000D03*
X181800000Y-79000000D03*
D19*
X180400000Y-78600000D03*
X179700000Y-78600000D03*
X179000000Y-78600000D03*
X178300000Y-78600000D03*
X177600000Y-78600000D03*
X176900000Y-78600000D03*
X176200000Y-78600000D03*
X175500000Y-78600000D03*
X174800000Y-78600000D03*
X174100000Y-78600000D03*
X173400000Y-78600000D03*
X172700000Y-78600000D03*
X172000000Y-78600000D03*
X171300000Y-78600000D03*
D18*
X170400000Y-78600000D03*
D21*
X170950000Y-80300000D03*
X172350000Y-80300000D03*
%TD*%
D16*
%TO.C,D2*%
X173612500Y-75200000D03*
X175187500Y-75200000D03*
%TD*%
D22*
%TO.C,L2*%
X176800000Y-93200000D03*
X180840000Y-93200000D03*
%TD*%
M02*
