%TF.GenerationSoftware,KiCad,Pcbnew,9.0.0*%
%TF.CreationDate,2026-04-05T16:20:28+02:00*%
%TF.ProjectId,ble beacon,626c6520-6265-4616-936f-6e2e6b696361,rev?*%
%TF.SameCoordinates,Original*%
%TF.FileFunction,Legend,Top*%
%TF.FilePolarity,Positive*%
%FSLAX46Y46*%
G04 Gerber Fmt 4.6, Leading zero omitted, Abs format (unit mm)*
G04 Created by KiCad (PCBNEW 9.0.0) date 2026-04-05 16:20:28*
%MOMM*%
%LPD*%
G01*
G04 APERTURE LIST*
%ADD10C,0.140000*%
%ADD11C,0.150000*%
%ADD12C,0.120000*%
G04 APERTURE END LIST*
D10*
X179020676Y-103970339D02*
X179211152Y-103970339D01*
X179211152Y-103970339D02*
X179306390Y-104017958D01*
X179306390Y-104017958D02*
X179401628Y-104113196D01*
X179401628Y-104113196D02*
X179449247Y-104303672D01*
X179449247Y-104303672D02*
X179449247Y-104637005D01*
X179449247Y-104637005D02*
X179401628Y-104827481D01*
X179401628Y-104827481D02*
X179306390Y-104922720D01*
X179306390Y-104922720D02*
X179211152Y-104970339D01*
X179211152Y-104970339D02*
X179020676Y-104970339D01*
X179020676Y-104970339D02*
X178925438Y-104922720D01*
X178925438Y-104922720D02*
X178830200Y-104827481D01*
X178830200Y-104827481D02*
X178782581Y-104637005D01*
X178782581Y-104637005D02*
X178782581Y-104303672D01*
X178782581Y-104303672D02*
X178830200Y-104113196D01*
X178830200Y-104113196D02*
X178925438Y-104017958D01*
X178925438Y-104017958D02*
X179020676Y-103970339D01*
X179877819Y-104970339D02*
X179877819Y-103970339D01*
X179877819Y-103970339D02*
X180449247Y-104970339D01*
X180449247Y-104970339D02*
X180449247Y-103970339D01*
X173920676Y-103970339D02*
X174111152Y-103970339D01*
X174111152Y-103970339D02*
X174206390Y-104017958D01*
X174206390Y-104017958D02*
X174301628Y-104113196D01*
X174301628Y-104113196D02*
X174349247Y-104303672D01*
X174349247Y-104303672D02*
X174349247Y-104637005D01*
X174349247Y-104637005D02*
X174301628Y-104827481D01*
X174301628Y-104827481D02*
X174206390Y-104922720D01*
X174206390Y-104922720D02*
X174111152Y-104970339D01*
X174111152Y-104970339D02*
X173920676Y-104970339D01*
X173920676Y-104970339D02*
X173825438Y-104922720D01*
X173825438Y-104922720D02*
X173730200Y-104827481D01*
X173730200Y-104827481D02*
X173682581Y-104637005D01*
X173682581Y-104637005D02*
X173682581Y-104303672D01*
X173682581Y-104303672D02*
X173730200Y-104113196D01*
X173730200Y-104113196D02*
X173825438Y-104017958D01*
X173825438Y-104017958D02*
X173920676Y-103970339D01*
X175111152Y-104446529D02*
X174777819Y-104446529D01*
X174777819Y-104970339D02*
X174777819Y-103970339D01*
X174777819Y-103970339D02*
X175254009Y-103970339D01*
X175968295Y-104446529D02*
X175634962Y-104446529D01*
X175634962Y-104970339D02*
X175634962Y-103970339D01*
X175634962Y-103970339D02*
X176111152Y-103970339D01*
D11*
X166504761Y-102459580D02*
X166457142Y-102507200D01*
X166457142Y-102507200D02*
X166314285Y-102554819D01*
X166314285Y-102554819D02*
X166219047Y-102554819D01*
X166219047Y-102554819D02*
X166076190Y-102507200D01*
X166076190Y-102507200D02*
X165980952Y-102411961D01*
X165980952Y-102411961D02*
X165933333Y-102316723D01*
X165933333Y-102316723D02*
X165885714Y-102126247D01*
X165885714Y-102126247D02*
X165885714Y-101983390D01*
X165885714Y-101983390D02*
X165933333Y-101792914D01*
X165933333Y-101792914D02*
X165980952Y-101697676D01*
X165980952Y-101697676D02*
X166076190Y-101602438D01*
X166076190Y-101602438D02*
X166219047Y-101554819D01*
X166219047Y-101554819D02*
X166314285Y-101554819D01*
X166314285Y-101554819D02*
X166457142Y-101602438D01*
X166457142Y-101602438D02*
X166504761Y-101650057D01*
X167504761Y-102554819D02*
X167171428Y-102078628D01*
X166933333Y-102554819D02*
X166933333Y-101554819D01*
X166933333Y-101554819D02*
X167314285Y-101554819D01*
X167314285Y-101554819D02*
X167409523Y-101602438D01*
X167409523Y-101602438D02*
X167457142Y-101650057D01*
X167457142Y-101650057D02*
X167504761Y-101745295D01*
X167504761Y-101745295D02*
X167504761Y-101888152D01*
X167504761Y-101888152D02*
X167457142Y-101983390D01*
X167457142Y-101983390D02*
X167409523Y-102031009D01*
X167409523Y-102031009D02*
X167314285Y-102078628D01*
X167314285Y-102078628D02*
X166933333Y-102078628D01*
X167885714Y-101650057D02*
X167933333Y-101602438D01*
X167933333Y-101602438D02*
X168028571Y-101554819D01*
X168028571Y-101554819D02*
X168266666Y-101554819D01*
X168266666Y-101554819D02*
X168361904Y-101602438D01*
X168361904Y-101602438D02*
X168409523Y-101650057D01*
X168409523Y-101650057D02*
X168457142Y-101745295D01*
X168457142Y-101745295D02*
X168457142Y-101840533D01*
X168457142Y-101840533D02*
X168409523Y-101983390D01*
X168409523Y-101983390D02*
X167838095Y-102554819D01*
X167838095Y-102554819D02*
X168457142Y-102554819D01*
X169076190Y-101554819D02*
X169171428Y-101554819D01*
X169171428Y-101554819D02*
X169266666Y-101602438D01*
X169266666Y-101602438D02*
X169314285Y-101650057D01*
X169314285Y-101650057D02*
X169361904Y-101745295D01*
X169361904Y-101745295D02*
X169409523Y-101935771D01*
X169409523Y-101935771D02*
X169409523Y-102173866D01*
X169409523Y-102173866D02*
X169361904Y-102364342D01*
X169361904Y-102364342D02*
X169314285Y-102459580D01*
X169314285Y-102459580D02*
X169266666Y-102507200D01*
X169266666Y-102507200D02*
X169171428Y-102554819D01*
X169171428Y-102554819D02*
X169076190Y-102554819D01*
X169076190Y-102554819D02*
X168980952Y-102507200D01*
X168980952Y-102507200D02*
X168933333Y-102459580D01*
X168933333Y-102459580D02*
X168885714Y-102364342D01*
X168885714Y-102364342D02*
X168838095Y-102173866D01*
X168838095Y-102173866D02*
X168838095Y-101935771D01*
X168838095Y-101935771D02*
X168885714Y-101745295D01*
X168885714Y-101745295D02*
X168933333Y-101650057D01*
X168933333Y-101650057D02*
X168980952Y-101602438D01*
X168980952Y-101602438D02*
X169076190Y-101554819D01*
X169742857Y-101554819D02*
X170361904Y-101554819D01*
X170361904Y-101554819D02*
X170028571Y-101935771D01*
X170028571Y-101935771D02*
X170171428Y-101935771D01*
X170171428Y-101935771D02*
X170266666Y-101983390D01*
X170266666Y-101983390D02*
X170314285Y-102031009D01*
X170314285Y-102031009D02*
X170361904Y-102126247D01*
X170361904Y-102126247D02*
X170361904Y-102364342D01*
X170361904Y-102364342D02*
X170314285Y-102459580D01*
X170314285Y-102459580D02*
X170266666Y-102507200D01*
X170266666Y-102507200D02*
X170171428Y-102554819D01*
X170171428Y-102554819D02*
X169885714Y-102554819D01*
X169885714Y-102554819D02*
X169790476Y-102507200D01*
X169790476Y-102507200D02*
X169742857Y-102459580D01*
X170742857Y-101650057D02*
X170790476Y-101602438D01*
X170790476Y-101602438D02*
X170885714Y-101554819D01*
X170885714Y-101554819D02*
X171123809Y-101554819D01*
X171123809Y-101554819D02*
X171219047Y-101602438D01*
X171219047Y-101602438D02*
X171266666Y-101650057D01*
X171266666Y-101650057D02*
X171314285Y-101745295D01*
X171314285Y-101745295D02*
X171314285Y-101840533D01*
X171314285Y-101840533D02*
X171266666Y-101983390D01*
X171266666Y-101983390D02*
X170695238Y-102554819D01*
X170695238Y-102554819D02*
X171314285Y-102554819D01*
X166219048Y-96154819D02*
X166219048Y-95154819D01*
X166219048Y-95154819D02*
X166457143Y-95154819D01*
X166457143Y-95154819D02*
X166600000Y-95202438D01*
X166600000Y-95202438D02*
X166695238Y-95297676D01*
X166695238Y-95297676D02*
X166742857Y-95392914D01*
X166742857Y-95392914D02*
X166790476Y-95583390D01*
X166790476Y-95583390D02*
X166790476Y-95726247D01*
X166790476Y-95726247D02*
X166742857Y-95916723D01*
X166742857Y-95916723D02*
X166695238Y-96011961D01*
X166695238Y-96011961D02*
X166600000Y-96107200D01*
X166600000Y-96107200D02*
X166457143Y-96154819D01*
X166457143Y-96154819D02*
X166219048Y-96154819D01*
X167790476Y-96059580D02*
X167742857Y-96107200D01*
X167742857Y-96107200D02*
X167600000Y-96154819D01*
X167600000Y-96154819D02*
X167504762Y-96154819D01*
X167504762Y-96154819D02*
X167361905Y-96107200D01*
X167361905Y-96107200D02*
X167266667Y-96011961D01*
X167266667Y-96011961D02*
X167219048Y-95916723D01*
X167219048Y-95916723D02*
X167171429Y-95726247D01*
X167171429Y-95726247D02*
X167171429Y-95583390D01*
X167171429Y-95583390D02*
X167219048Y-95392914D01*
X167219048Y-95392914D02*
X167266667Y-95297676D01*
X167266667Y-95297676D02*
X167361905Y-95202438D01*
X167361905Y-95202438D02*
X167504762Y-95154819D01*
X167504762Y-95154819D02*
X167600000Y-95154819D01*
X167600000Y-95154819D02*
X167742857Y-95202438D01*
X167742857Y-95202438D02*
X167790476Y-95250057D01*
X168219048Y-95773866D02*
X168980953Y-95773866D01*
X169457143Y-96154819D02*
X169457143Y-95154819D01*
X169457143Y-95154819D02*
X169695238Y-95154819D01*
X169695238Y-95154819D02*
X169838095Y-95202438D01*
X169838095Y-95202438D02*
X169933333Y-95297676D01*
X169933333Y-95297676D02*
X169980952Y-95392914D01*
X169980952Y-95392914D02*
X170028571Y-95583390D01*
X170028571Y-95583390D02*
X170028571Y-95726247D01*
X170028571Y-95726247D02*
X169980952Y-95916723D01*
X169980952Y-95916723D02*
X169933333Y-96011961D01*
X169933333Y-96011961D02*
X169838095Y-96107200D01*
X169838095Y-96107200D02*
X169695238Y-96154819D01*
X169695238Y-96154819D02*
X169457143Y-96154819D01*
X171028571Y-96059580D02*
X170980952Y-96107200D01*
X170980952Y-96107200D02*
X170838095Y-96154819D01*
X170838095Y-96154819D02*
X170742857Y-96154819D01*
X170742857Y-96154819D02*
X170600000Y-96107200D01*
X170600000Y-96107200D02*
X170504762Y-96011961D01*
X170504762Y-96011961D02*
X170457143Y-95916723D01*
X170457143Y-95916723D02*
X170409524Y-95726247D01*
X170409524Y-95726247D02*
X170409524Y-95583390D01*
X170409524Y-95583390D02*
X170457143Y-95392914D01*
X170457143Y-95392914D02*
X170504762Y-95297676D01*
X170504762Y-95297676D02*
X170600000Y-95202438D01*
X170600000Y-95202438D02*
X170742857Y-95154819D01*
X170742857Y-95154819D02*
X170838095Y-95154819D01*
X170838095Y-95154819D02*
X170980952Y-95202438D01*
X170980952Y-95202438D02*
X171028571Y-95250057D01*
D12*
%TO.C,J7*%
X218770000Y-86270000D02*
X220100000Y-86270000D01*
X218770000Y-87600000D02*
X218770000Y-86270000D01*
X218770000Y-88870000D02*
X218770000Y-91470000D01*
X218770000Y-88870000D02*
X221430000Y-88870000D01*
X218770000Y-91470000D02*
X221430000Y-91470000D01*
X221430000Y-88870000D02*
X221430000Y-91470000D01*
%TO.C,JP1*%
X167600000Y-100100000D02*
X167600000Y-97300000D01*
X168300000Y-96650000D02*
X168900000Y-96650000D01*
X168900000Y-100750000D02*
X168300000Y-100750000D01*
X169600000Y-97300000D02*
X169600000Y-100100000D01*
X167600000Y-97350000D02*
G75*
G02*
X168300000Y-96650000I699999J1D01*
G01*
X168300000Y-100750000D02*
G75*
G02*
X167600000Y-100050000I0J700000D01*
G01*
X168900000Y-96650000D02*
G75*
G02*
X169600000Y-97350000I1J-699999D01*
G01*
X169600000Y-100050000D02*
G75*
G02*
X168900000Y-100750000I-700000J0D01*
G01*
%TO.C,J1*%
X173430000Y-105870000D02*
X173430000Y-108530000D01*
X178570000Y-105870000D02*
X173430000Y-105870000D01*
X178570000Y-105870000D02*
X178570000Y-108530000D01*
X178570000Y-108530000D02*
X173430000Y-108530000D01*
X179840000Y-105870000D02*
X181170000Y-105870000D01*
X181170000Y-105870000D02*
X181170000Y-107200000D01*
%TO.C,R1*%
X178972936Y-72165000D02*
X179427064Y-72165000D01*
X178972936Y-73635000D02*
X179427064Y-73635000D01*
%TO.C,D1*%
X177755000Y-74435000D02*
X177755000Y-75905000D01*
X177755000Y-75905000D02*
X180040000Y-75905000D01*
X180040000Y-74435000D02*
X177755000Y-74435000D01*
%TO.C,C2*%
X172638748Y-92975000D02*
X173161252Y-92975000D01*
X172638748Y-94445000D02*
X173161252Y-94445000D01*
%TO.C,J5*%
X185770000Y-83670000D02*
X187100000Y-83670000D01*
X185770000Y-85000000D02*
X185770000Y-83670000D01*
X185770000Y-86270000D02*
X185770000Y-93950000D01*
X185770000Y-86270000D02*
X188430000Y-86270000D01*
X185770000Y-93950000D02*
X188430000Y-93950000D01*
X188430000Y-86270000D02*
X188430000Y-93950000D01*
%TO.C,J6*%
X222870000Y-83490000D02*
X224200000Y-83490000D01*
X222870000Y-84820000D02*
X222870000Y-83490000D01*
X222870000Y-86090000D02*
X222870000Y-93770000D01*
X222870000Y-86090000D02*
X225530000Y-86090000D01*
X222870000Y-93770000D02*
X225530000Y-93770000D01*
X225530000Y-86090000D02*
X225530000Y-93770000D01*
%TO.C,J4*%
X184650000Y-70870000D02*
X184650000Y-73530000D01*
X192330000Y-70870000D02*
X184650000Y-70870000D01*
X192330000Y-70870000D02*
X192330000Y-73530000D01*
X192330000Y-73530000D02*
X184650000Y-73530000D01*
X193600000Y-70870000D02*
X194930000Y-70870000D01*
X194930000Y-70870000D02*
X194930000Y-72200000D01*
%TO.C,C3*%
X172638748Y-90865000D02*
X173161252Y-90865000D01*
X172638748Y-92335000D02*
X173161252Y-92335000D01*
%TO.C,R2*%
X174085436Y-72165000D02*
X174539564Y-72165000D01*
X174085436Y-73635000D02*
X174539564Y-73635000D01*
%TO.C,U1*%
X166100000Y-78100000D02*
X167700000Y-78100000D01*
X166100000Y-79700000D02*
X166100000Y-78100000D01*
X166100000Y-88300000D02*
X166100000Y-86700000D01*
X166100000Y-88300000D02*
X167700000Y-88300000D01*
X182300000Y-78100000D02*
X181200000Y-78100000D01*
X182300000Y-78400000D02*
X182300000Y-78100000D01*
X182300000Y-88000000D02*
X182300000Y-88300000D01*
X182300000Y-88300000D02*
X181200000Y-88300000D01*
X171100000Y-88800000D02*
X171100000Y-88300000D01*
X171600000Y-88300000D01*
X171100000Y-88800000D01*
G36*
X171100000Y-88800000D02*
G01*
X171100000Y-88300000D01*
X171600000Y-88300000D01*
X171100000Y-88800000D01*
G37*
%TO.C,D2*%
X172915000Y-74465000D02*
X172915000Y-75935000D01*
X172915000Y-75935000D02*
X175200000Y-75935000D01*
X175200000Y-74465000D02*
X172915000Y-74465000D01*
%TO.C,L2*%
X175280000Y-89560000D02*
X175280000Y-90190000D01*
X175280000Y-89560000D02*
X182360000Y-89560000D01*
X175280000Y-96840000D02*
X175280000Y-96210000D01*
X175280000Y-96840000D02*
X182360000Y-96840000D01*
X182360000Y-89560000D02*
X182360000Y-90190000D01*
X182360000Y-96840000D02*
X182360000Y-96210000D01*
%TD*%
M02*
