M48
; DRILL file {KiCad 9.0.0} date 2026-04-05T16:20:26+0200
; FORMAT={-:-/ absolute / inch / decimal}
; #@! TF.CreationDate,2026-04-05T16:20:26+02:00
; #@! TF.GenerationSoftware,Kicad,Pcbnew,9.0.0
; #@! TF.FileFunction,Plated,1,2,PTH
FMAT,2
INCH
; #@! TA.AperFunction,Plated,PTH,ViaDrill
T1C0.0118
; #@! TA.AperFunction,Plated,PTH,ComponentDrill
T2C0.0394
%
G90
G05
T1
X6.5433Y-3.5591
X6.5551Y-3.622
X6.5551Y-4.0906
X6.5591Y-2.9961
X6.6142Y-3.5591
X6.6181Y-2.9961
X6.6299Y-3.7205
X6.6378Y-3.9331
X6.6575Y-4.0945
X6.6772Y-3.6811
X6.685Y-2.9921
X6.685Y-3.7165
X6.7087Y-3.0984
X6.7087Y-3.4567
X6.7165Y-3.6457
X6.7244Y-3.7165
X6.7323Y-3.3858
X6.7402Y-2.874
X6.7402Y-3.3386
X6.7402Y-3.9567
X6.7598Y-4.1929
X6.7677Y-3.6024
X6.7677Y-3.6929
X6.7717Y-2.9843
X6.7717Y-3.7638
X6.7874Y-4.0315
X6.8071Y-3.0197
X6.8386Y-3.1693
X6.8386Y-3.252
X6.8425Y-3.9724
X6.8543Y-3.3071
X6.8543Y-3.4016
X6.8622Y-3.0354
X6.8898Y-3.4016
X6.8976Y-3.8307
X6.9016Y-2.8701
X6.9213Y-3.1693
X6.9213Y-3.3071
X6.9252Y-3.248
X6.9606Y-2.9213
X6.9921Y-3.1732
X6.9921Y-3.2402
X6.9961Y-3.3583
X7.0315Y-3.8346
X7.063Y-3.248
X7.0669Y-3.1732
X7.0709Y-3.3583
X7.0945Y-2.8701
X7.1417Y-3.8346
X7.1457Y-3.4921
X7.1535Y-3.0748
X7.185Y-3.0748
X7.189Y-3.4961
X7.1929Y-3.563
X7.1929Y-3.6339
X7.1929Y-3.7638
X7.1969Y-3.6929
X7.2244Y-3.2874
X7.2244Y-3.3583
X7.248Y-3.937
X7.2835Y-3.1339
X7.2835Y-3.1772
X7.2992Y-3.9961
X7.3268Y-3.7598
X7.3346Y-3.1732
X7.3504Y-3.7913
X7.3504Y-3.8465
X7.3583Y-4.063
X7.3622Y-3.7598
X7.374Y-2.9409
X7.374Y-3.811
X7.374Y-3.878
X7.3937Y-3.7795
X7.3937Y-3.9134
X7.3976Y-3.8465
X7.4134Y-3.811
X7.4173Y-3.8819
X7.437Y-3.8465
X7.4409Y-3.7795
X7.4409Y-3.9134
X7.4528Y-3.811
X7.4606Y-3.8819
X7.4646Y-3.7598
X7.4764Y-2.937
X7.4764Y-3.5591
X7.4764Y-3.8465
X7.4843Y-3.7913
X7.4921Y-3.2913
X7.4921Y-3.4488
X7.4961Y-3.7598
X7.5197Y-4.0827
X7.6063Y-3.5157
X7.6102Y-3.685
X7.6535Y-3.2717
X7.6693Y-4.0827
X7.6811Y-3.3976
X7.7441Y-3.8189
X7.7756Y-4.2126
X7.7756Y-4.2362
X7.7756Y-4.2598
X7.7795Y-4.0315
X7.7992Y-4.2126
X7.7992Y-4.2362
X7.7992Y-4.2598
X7.8228Y-3.9213
X7.8386Y-4.0827
X7.8425Y-3.2756
X7.8701Y-3.5157
X7.878Y-4.0827
X7.9567Y-4.0827
X7.9803Y-3.9685
X7.9961Y-4.2126
X7.9961Y-4.2362
X7.9961Y-4.2598
X8.0Y-3.3976
X8.0Y-4.1142
X8.0197Y-4.2126
X8.0197Y-4.2362
X8.0197Y-4.2598
X8.0748Y-3.9764
X8.0945Y-3.2795
X8.1732Y-4.0079
X8.1969Y-3.5079
X8.2047Y-4.2165
X8.2047Y-4.2402
X8.2047Y-4.2638
X8.2283Y-4.2165
X8.2283Y-4.2402
X8.2283Y-4.2638
X8.2677Y-4.0984
X8.2874Y-3.9528
X8.3071Y-4.0906
X8.3268Y-3.2756
X8.3465Y-4.0866
X8.3622Y-3.4016
X8.3819Y-3.8622
X8.3858Y-4.0866
X8.3976Y-3.5197
X8.4016Y-4.0197
X8.4252Y-4.2165
X8.4252Y-4.2402
X8.4252Y-4.2638
X8.4488Y-4.2165
X8.4488Y-4.2402
X8.4488Y-4.2638
X8.4724Y-3.9449
X8.4882Y-3.2835
X8.4882Y-3.5197
X8.5118Y-3.748
X8.5433Y-3.3976
X8.5591Y-3.5276
X8.622Y-3.6496
X8.6811Y-3.7362
X8.748Y-3.5512
X8.752Y-3.4921
X9.1535Y-4.2362
X9.2205Y-4.1614
X9.311Y-4.0827
X9.311Y-4.1378
X9.315Y-2.9252
X9.3189Y-2.9685
X9.3228Y-3.0
X9.3228Y-4.2835
X9.3346Y-4.1142
X9.3583Y-2.9291
X9.3583Y-2.9685
X9.3622Y-3.0
X9.3622Y-4.0866
X9.3622Y-4.1417
X9.3701Y-4.2205
X9.3858Y-4.1142
X9.4055Y-4.1378
X9.4094Y-2.9252
X9.4094Y-2.9685
X9.4094Y-3.0039
X9.4094Y-4.0827
T2
X6.8803Y-4.2205
X6.9803Y-4.2205
X7.0803Y-4.2205
X7.322Y-2.8425
X7.3661Y-3.3465
X7.3661Y-3.4465
X7.3661Y-3.5465
X7.3661Y-3.6465
X7.422Y-2.8425
X7.522Y-2.8425
X7.622Y-2.8425
X8.6654Y-3.4488
X8.6654Y-3.5488
X8.8268Y-3.3394
X8.8268Y-3.4394
X8.8268Y-3.5394
X8.8268Y-3.6394
M30
